<svg width="177" height="52" viewBox="0 0 177 52" fill="none" xmlns="http://www.w3.org/2000/svg">
<path d="M97.464 5.9905V2.16165C97.4682 1.57885 97.9071 1.18908 98.438 1.18908H115.59C116.142 1.18908 116.58 1.58992 116.58 2.15822V5.44778C116.574 5.99076 116.11 6.71307 115.289 7.85653L106.397 20.5551C109.696 20.4778 113.188 20.9712 116.186 22.6595C116.861 23.0414 117.045 23.5981 117.096 24.1516V28.2463C117.096 28.8122 116.479 29.466 115.836 29.1255C110.551 26.3502 103.545 26.0485 97.7077 29.1587C97.1097 29.4786 96.4875 28.8381 96.4875 28.2721V24.3768C96.4875 23.7561 96.4975 22.6914 97.1245 21.7442L107.417 6.95886H98.4569C97.9095 6.95859 97.4704 6.56777 97.464 5.9905ZM34.8942 29.9317H29.6751C29.1785 29.9013 28.7783 29.5274 28.7415 29.0498L28.7462 2.22706C28.7462 1.69225 29.1932 1.26108 29.752 1.26108L34.6118 1.25923C35.121 1.28718 35.528 1.6722 35.5615 2.16165V5.66481H35.6571C36.9208 2.27769 39.3112 0.694622 42.5233 0.694622C45.7896 0.694622 47.8299 2.27769 49.2954 5.66481C50.563 2.27769 53.4344 0.694622 56.5066 0.694622C58.7 0.694622 61.0846 1.59942 62.5482 3.63159C64.2065 5.88317 63.8638 9.16218 63.8638 12.0345L63.8617 28.9646C63.8617 29.5026 63.4067 29.9314 62.853 29.9314H57.642C57.1159 29.9011 56.705 29.4842 56.705 28.9702L56.7029 14.7466C56.7029 13.6189 56.7982 10.8001 56.5543 9.72283C56.1618 7.91771 54.9935 7.4098 53.4835 7.4098C52.2224 7.4098 50.9042 8.25685 50.3665 9.61181C49.8333 10.9676 49.8797 13.2202 49.8797 14.7466V28.9641C49.8797 29.5021 49.4287 29.9309 48.8728 29.9309H43.6608C43.136 29.9006 42.7224 29.4836 42.7224 28.9696L42.7158 14.746C42.7158 11.7526 43.2056 7.35311 39.5048 7.35311C35.7504 7.35311 35.8976 11.6466 35.8976 14.746L35.8955 28.9636C35.895 29.5029 35.453 29.9317 34.8942 29.9317ZM131.352 0.694887C139.09 0.694887 143.288 7.35443 143.288 15.8199C143.288 23.9989 138.651 30.4979 131.352 30.4979C123.749 30.4979 119.605 23.8262 119.605 15.5343C119.605 7.18644 123.796 0.694887 131.352 0.694887ZM131.401 6.16693C127.547 6.16693 127.303 11.4219 127.303 14.6851C127.303 17.9602 127.254 24.9557 131.351 24.9557C135.386 24.9557 135.578 19.3141 135.578 15.8803C135.578 13.6197 135.483 10.9119 134.799 8.76556C134.216 6.90005 133.047 6.16693 131.401 6.16693ZM153.329 29.9317H148.125C147.6 29.9013 147.189 29.4844 147.189 28.9704L147.178 2.13792C147.224 1.64583 147.656 1.26081 148.182 1.26081L153.029 1.25896C153.487 1.28322 153.862 1.5952 153.956 2.0124V6.11207H154.055C155.515 2.44699 157.553 0.694356 161.159 0.694356C163.5 0.694356 165.795 1.54246 167.256 3.85918C168.612 5.99683 168.612 9.61207 168.612 12.2067V29.0844C168.552 29.5648 168.124 29.9314 167.622 29.9314H162.382C161.906 29.9032 161.511 29.5422 161.451 29.0844V14.5219C161.451 11.592 161.797 7.29641 158.185 7.29641C156.916 7.29641 155.76 8.14556 155.172 9.44461C154.442 11.0823 154.347 12.7139 154.347 14.5221V28.9649C154.333 29.5029 153.885 29.9317 153.329 29.9317ZM24.6664 25.0103C23.717 23.6867 22.7014 22.6184 22.7014 20.1696V12.0279C22.7014 8.58333 22.9478 5.41746 20.4053 3.04193C18.4014 1.11604 15.0829 0.4375 12.5416 0.4375C7.57452 0.4375 2.03555 2.29325 0.871966 8.43697C0.748152 9.09414 1.22339 9.43512 1.65173 9.53164L6.71019 10.0804C7.18042 10.0562 7.52579 9.58702 7.61641 9.11734C8.0516 6.99841 9.82267 5.97811 11.8132 5.97811C12.8832 5.97811 14.104 6.37632 14.7418 7.33755C15.4739 8.40954 15.3756 9.88369 15.3756 11.1282V11.8009C12.3466 12.1419 8.39117 12.3671 5.56373 13.6129C2.29214 15.0301 0 17.9095 0 22.1556C0 27.5891 3.41516 30.304 7.80555 30.304C11.5239 30.304 13.5463 29.4259 16.4141 26.5037C17.3624 27.8771 17.6719 28.5398 19.4043 29.9884C19.7939 30.1949 20.2913 30.1785 20.6382 29.8652L20.6498 29.8779C21.6927 28.9472 23.5897 27.299 24.6501 26.4058C25.0734 26.054 24.9986 25.4839 24.6664 25.0103ZM14.3977 22.663C13.5663 24.1263 12.2513 25.0327 10.7874 25.0327C8.78421 25.0327 7.61298 23.5045 7.61298 21.2479C7.61298 16.8001 11.6024 15.9931 15.3764 15.9931V17.1218C15.3764 19.1521 15.4241 20.8512 14.3977 22.663ZM93.0834 25.0103C92.1266 23.6867 91.1129 22.6184 91.1129 20.1696V12.0279C91.1129 8.58333 91.3574 5.41746 88.8147 3.04193C86.8197 1.11604 83.4965 0.4375 80.9602 0.4375C75.9942 0.4375 70.452 2.29325 69.2895 8.43697C69.1657 9.09414 69.6409 9.43512 70.0685 9.53164L75.1238 10.0804C75.6014 10.0562 75.9441 9.58702 76.0331 9.11734C76.471 6.99841 78.2344 5.97811 80.2278 5.97811C81.3005 5.97811 82.5239 6.37632 83.1553 7.33755C83.8856 8.40954 83.7881 9.88369 83.7881 11.1282V11.8009C80.7631 12.1419 76.8097 12.3671 73.9805 13.6129C70.7089 15.0301 68.4136 17.9095 68.4136 22.1556C68.4136 27.5891 71.8266 30.304 76.2231 30.304C79.9317 30.304 81.9649 29.4259 84.8295 26.5037C85.7757 27.8771 86.0876 28.5398 87.8197 29.9884C88.2122 30.1949 88.7046 30.1785 89.0497 29.8652L89.061 29.8779C90.1063 28.9472 92.0028 27.299 93.0686 26.4058C93.4933 26.054 93.4206 25.4839 93.0834 25.0103ZM82.811 22.663C81.9862 24.1263 80.6659 25.0327 79.2007 25.0327C77.1975 25.0327 76.0313 23.5045 76.0313 21.2479C76.0313 16.8001 80.0155 15.9931 83.7886 15.9931V17.1218C83.7886 19.1521 83.8392 20.8512 82.811 22.663Z" fill="#F3F3F3"/>
<path d="M104.432 40.3541C94.4765 47.468 80.6085 51.31 68.3736 51.31C51.2353 51.31 35.9596 45.0999 24.1901 34.4606C23.1016 33.4764 23.8045 32.3221 25.158 33.1009C37.9614 40.5131 53.3057 44.8496 69.4057 44.8496C80.2631 44.8496 91.7955 42.6853 102.755 38.0181C105.151 36.9957 106.144 39.1296 104.432 40.3541Z" fill="#F9A51B"/>
<path d="M108.687 35.5531C107.428 33.9429 100.397 34.7918 97.2377 35.1652C96.2869 35.282 96.1321 34.4447 96.9987 33.8395C102.607 29.9152 111.8 31.0576 112.863 32.353C113.938 33.6855 112.579 42.9189 107.325 47.3263C106.515 48.0088 105.754 47.6386 106.111 46.7454C107.29 43.7844 109.94 37.1576 108.687 35.5531Z" fill="#F9A51B"/>
<path d="M174.548 25.5518C175.136 25.5518 175.636 25.7588 176.048 26.1729C176.46 26.5832 176.668 27.0821 176.668 27.6663C176.668 28.2541 176.46 28.7538 176.048 29.1668C175.637 29.5811 175.138 29.7886 174.548 29.7886C173.96 29.7886 173.46 29.5811 173.049 29.1668C172.64 28.7538 172.434 28.2536 172.434 27.6663C172.434 27.0821 172.64 26.5832 173.054 26.1729C173.466 25.7588 173.966 25.5518 174.548 25.5518ZM177 27.6613C177 26.9851 176.759 26.4089 176.282 25.9332C175.804 25.4569 175.223 25.2188 174.546 25.2188C173.872 25.2188 173.298 25.4569 172.819 25.9332C172.342 26.4113 172.102 26.9867 172.102 27.6613C172.102 28.3414 172.339 28.9213 172.813 29.3991C173.288 29.8809 173.868 30.1217 174.545 30.1217C175.222 30.1217 175.803 29.8809 176.281 29.3991C176.759 28.9205 177 28.3408 177 27.6613ZM175.197 27.132C175.197 27.334 175.104 27.4714 174.917 27.5452C174.813 27.5858 174.661 27.6038 174.458 27.6038H174.025V26.6446H174.433C174.702 26.6446 174.894 26.6752 175.017 26.7417C175.136 26.8087 175.197 26.9368 175.197 27.132ZM173.562 26.3113V28.9938H174.024V27.9366H174.403C174.659 27.9366 174.838 27.9664 174.938 28.022C175.112 28.1243 175.196 28.3269 175.196 28.638V28.8506L175.207 28.9363L175.212 28.9666C175.217 28.9743 175.218 28.9848 175.22 28.9938H175.66L175.643 28.9595C175.63 28.9363 175.623 28.8915 175.618 28.8208C175.613 28.7493 175.613 28.6834 175.613 28.6206V28.4258C175.613 28.2902 175.562 28.151 175.467 28.0078C175.368 27.8664 175.216 27.7789 175.006 27.7464C175.172 27.7201 175.301 27.6773 175.394 27.6167C175.572 27.5017 175.661 27.3256 175.661 27.0869C175.661 26.7504 175.519 26.5241 175.241 26.4076C175.085 26.344 174.839 26.3118 174.505 26.3118L173.562 26.3113Z" fill="#F3F3F3"/>
</svg>
