<svg width="146" height="41" viewBox="0 0 146 41" fill="none" xmlns="http://www.w3.org/2000/svg">
<g clip-path="url(#clip0_3104_13690)">
<path d="M5.15625 37.3096C5.15625 38.1169 4.9707 38.7663 4.59961 39.2578C4.22852 39.7461 3.73047 39.9902 3.10547 39.9902C2.43815 39.9902 1.9222 39.7542 1.55762 39.2822L1.51367 39.8926H0.683594V32.3926H1.58691V35.1904C1.9515 34.738 2.45443 34.5117 3.0957 34.5117C3.73698 34.5117 4.23991 34.7542 4.60449 35.2393C4.97233 35.7243 5.15625 36.3883 5.15625 37.2314V37.3096ZM4.25293 37.207C4.25293 36.5918 4.13411 36.1165 3.89648 35.7812C3.65885 35.446 3.31706 35.2783 2.87109 35.2783C2.27539 35.2783 1.84733 35.555 1.58691 36.1084V38.3936C1.86361 38.9469 2.29492 39.2236 2.88086 39.2236C3.3138 39.2236 3.65072 39.056 3.8916 38.7207C4.13249 38.3854 4.25293 37.8809 4.25293 37.207ZM7.96875 38.5693L9.19922 34.6094H10.166L8.04199 40.708C7.71322 41.5869 7.19076 42.0264 6.47461 42.0264L6.30371 42.0117L5.9668 41.9482V41.2158L6.21094 41.2354C6.51693 41.2354 6.75456 41.1735 6.92383 41.0498C7.09635 40.9261 7.23796 40.6999 7.34863 40.3711L7.54883 39.834L5.66406 34.6094H6.65039L7.96875 38.5693ZM19.0625 39.8926H18.1201L14.541 34.4141V39.8926H13.5986V32.7832H14.541L18.1299 38.2861V32.7832H19.0625V39.8926ZM24.7412 38.0371H21.7627L21.0938 39.8926H20.127L22.8418 32.7832H23.6621L26.3818 39.8926H25.4199L24.7412 38.0371ZM22.0459 37.2656H24.4629L23.252 33.9404L22.0459 37.2656ZM28.2764 37.1094V39.8926H27.3389V32.7832H29.9609C30.7389 32.7832 31.3477 32.9818 31.7871 33.3789C32.2298 33.776 32.4512 34.3018 32.4512 34.9561C32.4512 35.6462 32.2347 36.1784 31.8018 36.5527C31.3721 36.9238 30.7552 37.1094 29.9512 37.1094H28.2764ZM28.2764 36.3428H29.9609C30.4622 36.3428 30.8464 36.2256 31.1133 35.9912C31.3802 35.7536 31.5137 35.4118 31.5137 34.9658C31.5137 34.5426 31.3802 34.2041 31.1133 33.9502C30.8464 33.6963 30.4801 33.5645 30.0146 33.5547H28.2764V36.3428ZM36.8994 38.0371H33.9209L33.252 39.8926H32.2852L35 32.7832H35.8203L38.54 39.8926H37.5781L36.8994 38.0371ZM34.2041 37.2656H36.6211L35.4102 33.9404L34.2041 37.2656Z" fill="#AFAFAF"/>
<path d="M50.4901 28.8555L55.8235 40.2732H54.5895L52.7918 36.5157H47.8559L46.0737 40.2732H44.8008L50.2017 28.8555H50.4901ZM50.3472 31.2817L48.3858 35.4181H52.2956L50.3472 31.2817Z" fill="#AFAFAF"/>
<path d="M57.6328 28.8555H58.7759V35.7502C58.764 36.261 58.7796 36.7721 58.8226 37.2812C58.8662 37.6831 59.0061 38.0685 59.2305 38.4048C59.4757 38.7394 59.8057 39.0027 60.1865 39.1677C60.5912 39.3653 61.035 39.47 61.4854 39.4739C61.8616 39.4742 62.2332 39.3918 62.574 39.2326C62.9106 39.0785 63.208 38.8505 63.4442 38.5657C63.6897 38.2608 63.8669 37.9069 63.9638 37.5277C64.0654 36.9375 64.1046 36.3383 64.0807 35.7398V28.8555H65.2056V35.7502C65.2298 36.5857 65.1291 37.42 64.9068 38.2258C64.6857 38.8823 64.2675 39.4549 63.7092 39.8658C63.087 40.3409 62.3203 40.5883 61.5374 40.5664C60.698 40.5902 59.8711 40.3595 59.1656 39.9047C58.5312 39.4979 58.0624 38.8788 57.8432 38.1583C57.703 37.7146 57.6328 36.9102 57.6328 35.7502V28.8555Z" fill="#AFAFAF"/>
<path d="M66.8848 29.9739V28.8555H73.1508V29.9739H70.6023V40.2784H69.4359V29.9739H66.8848Z" fill="#AFAFAF"/>
<path d="M88.1172 40.2781L89.7538 28.8604H89.9409L94.5885 38.2333L99.1945 28.8604H99.3763L101.023 40.2781H99.9011L98.771 32.1092L94.7287 40.2781H94.4352L90.3436 32.0469L89.2213 40.2781H88.1172Z" fill="#AFAFAF"/>
<path d="M115.971 29.9739V28.8555H122.237V29.9739H119.688V40.2784H118.522V29.9739H115.971Z" fill="#AFAFAF"/>
<path d="M123.723 28.8555H124.866V40.2732H123.723V28.8555Z" fill="#AFAFAF"/>
<path d="M126.615 28.8555H127.86L131.65 37.6783L135.5 28.8555H136.744L131.769 40.2732H131.51L126.615 28.8555Z" fill="#AFAFAF"/>
<path d="M138.672 28.8555H145.221V29.9739H139.815V33.5549H145.18V34.6707H139.815V39.16H145.18V40.2784H138.672V28.8555Z" fill="#AFAFAF"/>
<path d="M80.3432 28.8037C79.2016 28.7831 78.0798 29.1025 77.1206 29.7211C76.1614 30.3398 75.4084 31.2298 74.9575 32.2776C74.5066 33.3254 74.3783 34.4836 74.5889 35.6045C74.7995 36.7254 75.3394 37.7583 76.1399 38.5715C76.9405 39.3848 77.9653 39.9415 79.0837 40.1707C80.2022 40.4 81.3637 40.2914 82.4201 39.8587C83.4766 39.4261 84.3801 38.6891 85.0156 37.7416C85.6511 36.794 85.9898 35.679 85.9884 34.5385C86.0002 33.0305 85.4122 31.5796 84.3538 30.5043C83.2953 29.429 81.8529 28.8174 80.3432 28.8037ZM83.245 33.8716L80.1926 39.3936C80.184 39.4085 80.1707 39.4201 80.1549 39.4267C80.139 39.4333 80.1214 39.4344 80.1048 39.43C80.0883 39.4255 80.0736 39.4157 80.0632 39.4021C80.0527 39.3885 80.0471 39.3718 80.0471 39.3547L80.0289 35.5505H77.5064C77.4925 35.5495 77.4791 35.5451 77.4674 35.5377C77.4558 35.5302 77.4461 35.52 77.4394 35.5079C77.4327 35.4957 77.4291 35.4821 77.429 35.4683C77.4289 35.4544 77.4323 35.4408 77.4388 35.4285L80.5563 29.6989C80.5641 29.6822 80.5776 29.6688 80.5944 29.6611C80.6112 29.6534 80.6301 29.6519 80.6479 29.6569C80.6657 29.6619 80.6812 29.673 80.6915 29.6883C80.7018 29.7036 80.7064 29.7221 80.7043 29.7404L80.7251 33.7522H83.1723C83.1855 33.7525 83.1983 33.7559 83.2098 33.7623C83.2213 33.7687 83.2311 33.7777 83.2383 33.7888C83.2455 33.7998 83.2498 33.8124 83.251 33.8254C83.2522 33.8385 83.2501 33.8517 83.245 33.8638V33.8716Z" fill="#AFAFAF"/>
<path d="M0 20.24V0.495117H4.10982C7.06619 0.495117 9.21203 0.732986 10.5473 1.20872C12.3995 1.82853 13.9853 3.05938 15.0442 4.69892C16.1249 6.35449 16.6644 8.3275 16.6627 10.618C16.7018 12.4416 16.2592 14.2432 15.3794 15.8416C14.6172 17.2523 13.4586 18.4096 12.0463 19.1709C10.6798 19.8836 8.7652 20.24 6.30242 20.24H0ZM1.89644 18.3742H4.17996C6.91292 18.3742 8.80849 18.2012 9.86669 17.8552C11.2979 17.4153 12.5354 16.4997 13.3738 15.2603C14.2259 14.0044 14.652 12.4682 14.652 10.6517C14.652 8.74875 14.1904 7.12172 13.2673 5.77062C12.3466 4.42234 10.9813 3.43968 9.40947 2.99404C8.17981 2.61864 6.14482 2.43008 3.30448 2.42835H1.90683L1.89644 18.3742Z" fill="#AFAFAF"/>
<path d="M32.4975 15.3985L34.0822 16.2315C33.6332 17.1556 33.0227 17.9921 32.2793 18.7018C31.6108 19.3201 30.8305 19.8053 29.9802 20.1317C29.0548 20.4714 28.0746 20.6377 27.0887 20.6221C24.7022 20.6221 22.836 19.8436 21.4904 18.2867C20.187 16.8248 19.4725 14.9323 19.4848 12.9748C19.4661 11.1766 20.0689 9.42693 21.1916 8.02109C22.636 6.17522 24.5688 5.25316 26.99 5.25489C29.484 5.25489 31.4757 6.19944 32.9651 8.08856C34.025 9.42235 34.5637 11.0866 34.581 13.0812H21.4098C21.4445 14.7783 21.9865 16.1692 23.0361 17.2539C23.5354 17.7825 24.1402 18.2005 24.8115 18.4807C25.4828 18.761 26.2055 18.8973 26.9329 18.8809C27.6709 18.8824 28.4034 18.7542 29.0969 18.502C29.7536 18.2683 30.362 17.9165 30.892 17.4641C31.5278 16.8598 32.069 16.1635 32.4975 15.3985ZM32.4975 11.4646C32.3068 10.595 31.9331 9.77592 31.4012 9.06166C30.8878 8.43703 30.2358 7.9404 29.497 7.61109C28.7211 7.24888 27.8751 7.06109 27.0186 7.06096C25.6543 7.03524 24.3314 7.52984 23.3192 8.44406C22.5659 9.11702 21.9961 10.1239 21.6099 11.4646H32.4975Z" fill="#AFAFAF"/>
<path d="M36.6895 5.63867H38.6924L43.5998 16.2779L48.45 5.63867H50.4659L43.7738 20.2404H43.4231L36.6895 5.63867Z" fill="#AFAFAF"/>
<path d="M65.6407 15.3985L67.2254 16.2315C66.7764 17.1556 66.1659 17.9921 65.4225 18.7018C64.7556 19.3195 63.9771 19.8047 63.1286 20.1317C62.2032 20.4714 61.223 20.6377 60.2372 20.6221C57.8506 20.6221 55.9844 19.8436 54.6388 18.2867C53.3298 16.8271 52.6096 14.9343 52.6176 12.9748C52.5989 11.1766 53.2017 9.42693 54.3244 8.02109C55.7688 6.17522 57.7016 5.25316 60.1228 5.25489C62.6168 5.25489 64.6085 6.19944 66.0979 8.08856C67.1579 9.42235 67.6965 11.0866 67.7138 13.0812H54.5556C54.5885 14.7783 55.1306 16.1692 56.1819 17.2539C56.6812 17.7825 57.286 18.2005 57.9573 18.4807C58.6286 18.761 59.3513 18.8973 60.0787 18.8809C60.8206 18.8811 61.5568 18.7502 62.2531 18.4943C62.9098 18.2605 63.5182 17.9087 64.0482 17.4563C64.6787 16.8534 65.2155 16.1599 65.6407 15.3985ZM65.6407 11.4646C65.45 10.595 65.0763 9.77592 64.5444 9.06166C64.031 8.43703 63.379 7.9404 62.6402 7.61109C61.8603 7.24702 61.0097 7.05918 60.1488 7.06096C58.7845 7.03524 57.4616 7.52984 56.4495 8.44406C55.6961 9.11702 55.1263 10.1239 54.7401 11.4646H65.6407Z" fill="#AFAFAF"/>
<path d="M70.9355 0H72.819V20.2405H70.9355V0Z" fill="#AFAFAF"/>
<path d="M83.6516 5.26303C84.7072 5.23771 85.7555 5.44341 86.7231 5.86568C87.6907 6.28795 88.554 6.91658 89.2526 7.70746C90.5779 9.13919 91.3007 11.0255 91.2711 12.9752C91.2895 14.9695 90.5225 16.8911 89.1357 18.3259C87.7138 19.8518 85.8849 20.6147 83.649 20.6147C81.4131 20.6147 79.5799 19.8518 78.1493 18.3259C76.7642 16.8903 75.9983 14.969 76.0165 12.9752C75.9872 11.0271 76.7101 9.1425 78.035 7.71265C78.735 6.91906 79.6007 6.28844 80.5711 5.86521C81.5416 5.44197 82.5931 5.23642 83.6516 5.26303ZM83.6516 7.10284C82.8954 7.09247 82.1454 7.24017 81.4497 7.53645C80.754 7.83274 80.128 8.27106 79.6119 8.82328C79.0648 9.37493 78.6344 10.031 78.3465 10.7523C78.0587 11.4737 77.9191 12.2455 77.9363 13.0219C77.9331 14.0582 78.2018 15.0773 78.7157 15.9775C79.199 16.8604 79.9186 17.5917 80.794 18.0898C81.6727 18.5781 82.6616 18.8344 83.6672 18.8344C84.6728 18.8344 85.6617 18.5781 86.5404 18.0898C87.4151 17.5909 88.1345 16.8598 88.6187 15.9775C89.1326 15.0773 89.4013 14.0582 89.3981 13.0219C89.4088 12.2418 89.2612 11.4676 88.9643 10.7461C88.6674 10.0245 88.2273 9.37041 87.6705 8.82328C87.1563 8.27429 86.5336 7.83791 85.8418 7.54177C85.15 7.24562 84.4042 7.09616 83.6516 7.10284Z" fill="#AFAFAF"/>
<path d="M94.7773 5.63867H96.6608V8.32443C97.3302 7.36993 98.2124 6.58376 99.2379 6.02791C100.236 5.50947 101.347 5.24644 102.472 5.2624C103.468 5.24869 104.455 5.44079 105.372 5.82663C106.29 6.21247 107.117 6.7837 107.803 7.50443C108.519 8.2072 109.085 9.04803 109.466 9.97586C109.847 10.9037 110.035 11.8992 110.019 12.9019C110.037 13.9151 109.851 14.9216 109.472 15.8614C109.093 16.8012 108.528 17.6551 107.811 18.372C106.733 19.4862 105.331 20.2329 103.805 20.5063C102.278 20.7798 100.704 20.5659 99.3054 19.8952C98.2792 19.372 97.3774 18.6349 96.6608 17.7337V25.5885H94.7773V5.63867ZM102.311 7.07367C101.545 7.05738 100.783 7.20054 100.075 7.49404C99.3674 7.78755 98.7283 8.22499 98.1987 8.77854C97.6498 9.33657 97.2191 9.99946 96.9326 10.7276C96.646 11.4557 96.5094 12.234 96.5309 13.0161C96.5144 14.0601 96.7705 15.0904 97.2739 16.0054C97.7726 16.8933 98.5118 17.6227 99.4067 18.1099C100.299 18.6202 101.309 18.8886 102.337 18.8884C103.343 18.8939 104.331 18.6247 105.195 18.1099C106.087 17.5828 106.821 16.8254 107.32 15.9172C107.836 15.0192 108.107 14.002 108.107 12.9668C108.107 11.9315 107.836 10.9143 107.32 10.0163C106.827 9.11941 106.101 8.37233 105.218 7.85427C104.335 7.33622 103.328 7.06649 102.303 7.07367H102.311Z" fill="#AFAFAF"/>
<path d="M125.838 15.3985L127.425 16.2315C126.975 17.155 126.365 17.9915 125.622 18.7018C124.953 19.3201 124.172 19.8054 123.321 20.1317C122.395 20.4714 121.415 20.6377 120.429 20.6221C118.044 20.6221 116.179 19.8436 114.833 18.2867C113.525 16.8273 112.805 14.9342 112.815 12.9748C112.796 11.1761 113.4 9.42616 114.524 8.02109C115.969 6.17522 117.901 5.25316 120.323 5.25489C122.813 5.25489 124.805 6.19944 126.298 8.08856C127.356 9.42235 127.894 11.0866 127.911 13.0812H114.75C114.787 14.7783 115.33 16.1692 116.379 17.2539C116.878 17.7825 117.483 18.2005 118.155 18.4807C118.826 18.761 119.549 18.8973 120.276 18.8809C121.017 18.8809 121.752 18.75 122.448 18.4943C123.105 18.2603 123.714 17.9085 124.245 17.4563C124.876 16.8534 125.413 16.1598 125.838 15.3985ZM125.838 11.4646C125.649 10.5943 125.276 9.77473 124.742 9.06166C124.228 8.43703 123.576 7.9404 122.837 7.61109C122.058 7.24707 121.209 7.05923 120.349 7.06096C118.983 7.03391 117.658 7.5286 116.644 8.44406C115.891 9.11702 115.322 10.1239 114.937 11.4646H125.838Z" fill="#AFAFAF"/>
<path d="M146.014 0V20.2405H144.159V17.7338C143.439 18.6362 142.534 19.3733 141.504 19.8954C140.103 20.5658 138.526 20.7794 136.997 20.506C135.468 20.2327 134.064 19.4862 132.983 18.3721C132.267 17.655 131.703 16.8009 131.325 15.861C130.948 14.921 130.764 13.9146 130.785 12.902C130.77 11.8986 130.96 10.9027 131.343 9.97484C131.726 9.04698 132.293 8.20653 133.011 7.50456C133.698 6.78394 134.527 6.21282 135.445 5.82702C136.363 5.44122 137.351 5.24904 138.347 5.26253C139.48 5.24605 140.599 5.50899 141.605 6.02804C142.628 6.58176 143.505 7.36855 144.166 8.32456V0H146.014ZM138.493 7.0738C137.47 7.06741 136.464 7.33693 135.581 7.85394C134.699 8.37094 133.973 9.11625 133.479 10.0113C132.962 10.909 132.691 11.9263 132.691 12.9617C132.691 13.9971 132.962 15.0144 133.479 15.9121C133.978 16.8214 134.714 17.579 135.609 18.1049C136.473 18.6187 137.461 18.8878 138.467 18.8834C139.494 18.8838 140.503 18.6154 141.395 18.1049C142.286 17.6153 143.023 16.8864 143.522 16.0004C144.026 15.0853 144.282 14.055 144.265 13.011C144.287 12.2287 144.15 11.4501 143.863 10.7219C143.576 9.99377 143.145 9.33103 142.595 8.77348C142.066 8.22255 141.428 7.78709 140.722 7.49455C140.016 7.20202 139.257 7.05876 138.493 7.0738Z" fill="#AFAFAF"/>
<path d="M108.985 40.3094C112.161 40.3094 114.734 37.7384 114.734 34.5668C114.734 31.3953 112.161 28.8242 108.985 28.8242C105.81 28.8242 103.236 31.3953 103.236 34.5668C103.236 37.7384 105.81 40.3094 108.985 40.3094Z" fill="#AFAFAF"/>
</g>
<defs>
<clipPath id="clip0_3104_13690">
<rect width="146" height="41" fill="white"/>
</clipPath>
</defs>
</svg>
