<svg width="176" height="48" viewBox="0 0 176 48" fill="none" xmlns="http://www.w3.org/2000/svg">
<g clip-path="url(#clip0_3104_12190)">
<path d="M175.725 47.7274H0.273438V0.273438H175.725V47.7274Z" fill="#231F20"/>
<path d="M0.275391 47.7274H175.726V0.273438H0.275391V47.7274Z" stroke="black" stroke-width="0.5725"/>
<path d="M171.777 43.8008H4.21875V4.19922H171.777V43.8008Z" fill="#FEDD03"/>
<path d="M171.779 4.19922H4.2207V43.8008H171.779V4.19922Z" stroke="#FEDD03" stroke-width="0.5725"/>
<path d="M15.3402 20.8916C12.6003 18.4939 11.409 16.1094 12.5596 14.7454C13.5256 13.7844 17.3957 14.2816 20.4784 17.1443C23.561 20.0057 23.8487 22.6645 23.2326 23.4002C22.6154 24.1358 18.8759 23.6052 16.6562 21.8872C16.0797 21.5187 15.3402 20.8916 15.3402 20.8916Z" stroke="black" stroke-width="0.72"/>
<path d="M15.6678 21.0677C14.2715 19.9636 11.1061 16.8971 11.1469 13.9116C11.1469 12.9316 12.2567 11.1324 14.9702 11.2135C17.6825 11.2957 20.2726 12.8898 23.8059 16.6932C27.3416 20.4966 36.7597 31.4012 38.0278 32.8438C39.7549 34.8063 40.5771 36.6055 47.8918 36.6055H161.171" stroke="black" stroke-width="0.72"/>
<path d="M160.516 26.9467C163.256 29.3456 164.447 31.7302 163.297 33.0941C162.331 34.0539 158.461 33.5567 155.377 30.6941C152.294 27.8326 152.008 25.175 152.624 24.4382C153.241 23.7037 156.98 24.2331 159.2 25.9512C159.775 26.3208 160.516 26.9467 160.516 26.9467Z" stroke="black" stroke-width="0.72"/>
<path d="M160.187 26.7691C161.584 27.8731 164.749 30.9408 164.708 33.9251C164.708 34.9076 163.599 36.7055 160.886 36.6232C158.172 36.5422 155.582 34.9469 152.049 31.1447C148.515 27.3425 139.095 16.4356 137.828 14.9941C136.101 13.0304 135.278 11.2325 127.963 11.2325H14.7656" stroke="black" stroke-width="0.72"/>
<path d="M13.7793 14.293H21.1779" stroke="black" stroke-width="0.77125"/>
<path d="M22.6562 23.6982H30.0549" stroke="black" stroke-width="0.77125"/>
<path d="M145.801 24.1357H153.527" stroke="black" stroke-width="0.77125"/>
<path d="M154.76 33.5391H162.16" stroke="black" stroke-width="0.77125"/>
<path d="M12.2988 16.9814H20.1361" stroke="black" stroke-width="0.515"/>
<path d="M13.832 19.3252H22.217" stroke="black" stroke-width="0.515"/>
<path d="M16.5176 21.7236H28.2453" stroke="black" stroke-width="0.515"/>
<path d="M23.5332 22.4873H28.9039" stroke="black" stroke-width="0.515"/>
<path d="M22.6562 19.7617H26.3286" stroke="black" stroke-width="0.515"/>
<path d="M20.5742 17.1455H23.9158" stroke="black" stroke-width="0.515"/>
<path d="M19.0391 15.8916H22.8205" stroke="black" stroke-width="0.515"/>
<path d="M11.1465 14.1768H13.504" stroke="black" stroke-width="0.515"/>
<path d="M11.2559 13.3281H19.9153" stroke="black" stroke-width="0.515"/>
<path d="M11.8594 12.2939H18.6539" stroke="black" stroke-width="0.515"/>
<path d="M19.8066 12.8926H135.552" stroke="black" stroke-width="0.515"/>
<path d="M137.251 14.793H21.834" stroke="black" stroke-width="0.515"/>
<path d="M23.3145 16.0156H39.339" stroke="black" stroke-width="0.515"/>
<path d="M24.4102 17.3789H39.3392" stroke="black" stroke-width="0.515"/>
<path d="M25.5059 18.625H39.3382" stroke="black" stroke-width="0.515"/>
<path d="M26.875 19.9805H39.3386" stroke="black" stroke-width="0.515"/>
<path d="M27.8613 21.3281H39.3386" stroke="black" stroke-width="0.515"/>
<path d="M29.2305 22.7598H39.3378" stroke="black" stroke-width="0.515"/>
<path d="M30.7109 24.2168H39.3381" stroke="black" stroke-width="0.515"/>
<path d="M32.7383 26.6875H39.3387" stroke="black" stroke-width="0.515"/>
<path d="M34.5469 28.6484H39.3375" stroke="black" stroke-width="0.515"/>
<path d="M36.1367 30.5566H39.338" stroke="black" stroke-width="0.515"/>
<path d="M37.4531 32.082H39.3396" stroke="black" stroke-width="0.515"/>
<path d="M38.8789 33.6396H154.68" stroke="black" stroke-width="0.515"/>
<path d="M40.4141 35.0654H156.378" stroke="black" stroke-width="0.515"/>
<path d="M160.598 27.1211H152.926" stroke="black" stroke-width="0.515"/>
<path d="M162.625 29.248H154.076" stroke="black" stroke-width="0.515"/>
<path d="M135.902 17.0361H139.498" stroke="black" stroke-width="0.515"/>
<path d="M140.978 18.7969H135.902" stroke="black" stroke-width="0.515"/>
<path d="M143.116 21.125H135.904" stroke="black" stroke-width="0.515"/>
<path d="M144.487 22.5586H135.904" stroke="black" stroke-width="0.515"/>
<path d="M145.334 23.6885H135.906" stroke="black" stroke-width="0.515"/>
<path d="M152.38 25.8711H147.502" stroke="black" stroke-width="0.515"/>
<path d="M152.598 26.8506H148.16" stroke="black" stroke-width="0.515"/>
<path d="M153.147 27.6689H148.982" stroke="black" stroke-width="0.515"/>
<path d="M147.666 26.4141H135.904" stroke="black" stroke-width="0.515"/>
<path d="M149.256 27.9951H135.904" stroke="black" stroke-width="0.515"/>
<path d="M150.077 28.9756H135.904" stroke="black" stroke-width="0.515"/>
<path d="M135.904 30.2305H151.228" stroke="black" stroke-width="0.515"/>
<path d="M151.941 31.2363H135.904" stroke="black" stroke-width="0.515"/>
<path d="M153.256 32.4199H135.904" stroke="black" stroke-width="0.515"/>
<path d="M153.641 32.6299H158.244" stroke="black" stroke-width="0.515"/>
<path d="M152.762 31.7578H156.598" stroke="black" stroke-width="0.515"/>
<path d="M151.996 30.9404H155.448" stroke="black" stroke-width="0.515"/>
<path d="M151.119 30.0127H154.681" stroke="black" stroke-width="0.515"/>
<path d="M156.162 34.8652H164.382" stroke="black" stroke-width="0.515"/>
<path d="M51.8116 27.6746V16.28H48.6318V27.1286C48.6318 28.3829 47.2068 28.9206 46.3306 28.9206C45.8368 28.9206 43.8089 28.1027 43.3175 27.6663L42.0566 30.0652C42.0566 30.0652 44.1936 31.918 46.659 31.918C49.1256 31.918 50.2763 30.7197 50.7161 30.2285C51.1536 29.7385 51.8116 28.5462 51.8116 27.6746Z" fill="black"/>
<path d="M54.9358 31.9463C55.9198 31.9463 56.7192 31.1522 56.7192 30.1722C56.7192 29.1933 55.9198 28.4004 54.9358 28.4004C53.9518 28.4004 53.1523 29.1933 53.1523 30.1722C53.1523 31.1522 53.9518 31.9463 54.9358 31.9463Z" fill="black"/>
<path d="M74.4983 31.9463C75.4823 31.9463 76.2817 31.1522 76.2817 30.1722C76.2817 29.1933 75.4823 28.4004 74.4983 28.4004C73.5143 28.4004 72.7148 29.1933 72.7148 30.1722C72.7148 31.1522 73.5143 31.9463 74.4983 31.9463Z" fill="black"/>
<path d="M67.3419 22.5197C68.242 22.5197 68.9695 21.7936 68.9695 20.9006C68.9695 20.0064 68.242 19.2803 67.3419 19.2803L65.1785 19.2767V22.5066L67.3419 22.5197ZM67.6523 28.8126C68.6231 28.8126 69.4106 28.077 69.4106 27.1088C69.4106 26.1443 68.6231 25.3597 67.6523 25.3597L65.1785 25.3562V28.8031L67.6523 28.8126ZM65.1785 31.5918H62V16.0004H65.1785C66.5353 16.0004 65.616 16.0051 68.0826 16.0051C71.1653 16.0051 72.3974 18.6627 72.3974 19.7262C72.3974 20.7897 72.6035 22.4255 70.59 23.5701C72.522 24.5514 72.9739 25.9404 72.9739 27.2495C72.9739 28.5586 71.9048 31.5846 68.0011 31.5846L65.1785 31.5918Z" fill="black"/>
<path d="M89.9829 16.28V22.828H85.4332V16.28H82.2559V31.8643L85.4332 31.85V25.5678H89.9829V31.8643L93.1614 31.85V16.28H89.9829Z" fill="black"/>
<path d="M102.038 28.9152C103.193 28.9152 104.11 28.0234 104.11 26.874L104.107 16.2842H107.108V25.6484C107.108 28.0472 107.381 29.2455 106.23 30.4449C105.079 31.6443 103.489 32.2715 102.038 32.2715C100.585 32.2715 98.996 31.6443 97.8442 30.4449C96.6936 29.2455 96.9681 28.0472 96.9681 25.6484V16.2842H99.968L99.9656 26.874C99.9656 28.0234 100.883 28.9152 102.038 28.9152Z" fill="black"/>
<path d="M132.607 16.2859H122.824V19.1903H126.114V31.8643H129.32V19.1903H132.607V16.2859Z" fill="black"/>
<path d="M117.646 31.8237L113.412 23.2369V31.8643H110.451V16.2859H113.412L117.501 23.8092L117.518 23.4611V16.2859H120.477V31.8643H117.66L117.646 31.8237Z" fill="black"/>
</g>
<defs>
<clipPath id="clip0_3104_12190">
<rect width="176" height="48" fill="white"/>
</clipPath>
</defs>
</svg>
