<svg width="28" height="28" viewBox="0 0 28 28" fill="none" xmlns="http://www.w3.org/2000/svg">
<g clip-path="url(#clip0_202_3128)">
<path fill-rule="evenodd" clip-rule="evenodd" d="M6.32324 0H21.6768C23.3523 0.00483206 24.9579 0.675685 26.1427 1.866C27.3275 3.05632 27.9952 4.66935 28 6.35271V21.6496C27.9946 23.3325 27.3266 24.945 26.1419 26.1348C24.9571 27.3246 23.3519 27.9952 21.6768 28H6.32324C4.64809 27.9952 3.04288 27.3246 1.85815 26.1348C0.673417 24.945 0.00541045 23.3325 0 21.6496V6.35271C0.00480964 4.66935 0.672551 3.05632 1.85735 1.866C3.04214 0.675685 4.64769 0.00483206 6.32324 0V0Z" fill="#1CA1F1"/>
<path fill-rule="evenodd" clip-rule="evenodd" d="M23.3685 8.16354C22.668 8.47655 21.9243 8.68109 21.1628 8.77019C21.9636 8.28772 22.5641 7.53084 22.8535 6.63889C22.0987 7.08812 21.2735 7.40549 20.4131 7.57748C19.886 7.01336 19.2024 6.62129 18.4509 6.4521C17.6994 6.28292 16.9146 6.34441 16.1983 6.62862C15.482 6.91282 14.8672 7.40663 14.4336 8.04604C13.9999 8.68546 13.7675 9.44099 13.7663 10.2147C13.7664 10.5105 13.7993 10.8053 13.8643 11.0938C12.3365 11.0166 10.8419 10.6174 9.47776 9.92207C8.11357 9.22674 6.91025 8.25086 5.94596 7.05782C5.60405 7.64711 5.42398 8.31702 5.42415 8.99912V8.99912C5.42462 9.63335 5.58083 10.2577 5.87894 10.8167C6.17705 11.3758 6.60784 11.8523 7.13314 12.2041C6.52307 12.1831 5.92656 12.0176 5.39225 11.7211V11.7714C5.3895 12.6648 5.69531 13.5315 6.25753 14.2236C6.81974 14.9158 7.60354 15.3906 8.47526 15.567C8.14469 15.6571 7.80379 15.7033 7.46126 15.7044C7.21808 15.7029 6.97554 15.6791 6.73665 15.6334C6.98269 16.4 7.46072 17.0702 8.10407 17.5508C8.74741 18.0313 9.524 18.2982 10.3255 18.3141C8.71238 19.5843 6.66401 20.1605 4.62891 19.9166C6.38621 21.0521 8.43209 21.6546 10.5215 21.6519C17.5853 21.6519 21.459 15.7685 21.459 10.6634C21.459 10.494 21.459 10.3292 21.4476 10.1621C22.2006 9.61864 22.8497 8.94316 23.3639 8.16812L23.3685 8.16354Z" fill="#F3F3F3"/>
</g>
<defs>
<clipPath id="clip0_202_3128">
<rect width="28" height="28" fill="white"/>
</clipPath>
</defs>
</svg>
