<svg width="28" height="28" viewBox="0 0 28 28" fill="none" xmlns="http://www.w3.org/2000/svg">
<g clip-path="url(#clip0_2953_15070)">
<path d="M14.007 0.211914C8.24974 0.211914 6.56597 0.217853 6.23868 0.245005C5.0572 0.343217 4.32201 0.529247 3.52106 0.928035C2.90381 1.23455 2.41701 1.58985 1.93657 2.08791C1.06159 2.99622 0.531305 4.11367 0.339341 5.44197C0.246011 6.08682 0.21886 6.21834 0.213345 9.51216C0.211224 10.6101 0.213345 12.0551 0.213345 13.9932C0.213345 19.7459 0.219709 21.4281 0.247283 21.7547C0.342735 22.9044 0.523033 23.6278 0.904839 24.419C1.63451 25.9335 3.02811 27.0705 4.66988 27.4947C5.23834 27.6411 5.8662 27.7217 6.67224 27.7599C7.01375 27.7747 10.4945 27.7853 13.9775 27.7853C17.4604 27.7853 20.9433 27.7811 21.2763 27.7641C22.2097 27.7202 22.7516 27.6475 23.3508 27.4926C25.0032 27.0662 26.3713 25.9462 27.1159 24.4105C27.4902 23.6384 27.6801 22.8875 27.766 21.7978C27.7847 21.5602 27.7925 17.7724 27.7925 13.9896C27.7925 10.2062 27.784 6.42537 27.7654 6.18779C27.6784 5.08052 27.4886 4.33597 27.1021 3.54901C26.785 2.90479 26.4329 2.4237 25.9217 1.93179C25.0094 1.0604 23.8936 0.530096 22.5641 0.338338C21.9199 0.245217 21.7916 0.217641 18.4953 0.211914H14.007Z" fill="url(#paint0_radial_2953_15070)"/>
<path d="M14.007 0.211914C8.24974 0.211914 6.56597 0.217853 6.23868 0.245005C5.0572 0.343217 4.32201 0.529247 3.52106 0.928035C2.90381 1.23455 2.41701 1.58985 1.93657 2.08791C1.06159 2.99622 0.531305 4.11367 0.339341 5.44197C0.246011 6.08682 0.21886 6.21834 0.213345 9.51216C0.211224 10.6101 0.213345 12.0551 0.213345 13.9932C0.213345 19.7459 0.219709 21.4281 0.247283 21.7547C0.342735 22.9044 0.523033 23.6278 0.904839 24.419C1.63451 25.9335 3.02811 27.0705 4.66988 27.4947C5.23834 27.6411 5.8662 27.7217 6.67224 27.7599C7.01375 27.7747 10.4945 27.7853 13.9775 27.7853C17.4604 27.7853 20.9433 27.7811 21.2763 27.7641C22.2097 27.7202 22.7516 27.6475 23.3508 27.4926C25.0032 27.0662 26.3713 25.9462 27.1159 24.4105C27.4902 23.6384 27.6801 22.8875 27.766 21.7978C27.7847 21.5602 27.7925 17.7724 27.7925 13.9896C27.7925 10.2062 27.784 6.42537 27.7654 6.18779C27.6784 5.08052 27.4886 4.33597 27.1021 3.54901C26.785 2.90479 26.4329 2.4237 25.9217 1.93179C25.0094 1.0604 23.8936 0.530096 22.5641 0.338338C21.9199 0.245217 21.7916 0.217641 18.4953 0.211914H14.007Z" fill="url(#paint1_radial_2953_15070)"/>
<path d="M14.0002 3.81836C11.2351 3.81836 10.8881 3.83045 9.80205 3.87987C8.71815 3.92951 7.97829 4.10112 7.33092 4.3529C6.66127 4.61297 6.09323 4.96084 5.5273 5.527C4.96096 6.09293 4.61309 6.661 4.35219 7.33045C4.09977 7.97806 3.92796 8.71815 3.87917 9.80166C3.8306 10.8877 3.81787 11.235 3.81787 14.0002C3.81787 16.7654 3.83017 17.1114 3.87938 18.1974C3.92923 19.2814 4.10083 20.0212 4.3524 20.6686C4.61267 21.3383 4.96053 21.9064 5.52667 22.4723C6.09238 23.0387 6.66042 23.3874 7.32964 23.6474C7.97744 23.8992 8.71751 24.0708 9.80121 24.1205C10.8872 24.1699 11.234 24.182 13.999 24.182C16.7643 24.182 17.1103 24.1699 18.1963 24.1205C19.2802 24.0708 20.0209 23.8992 20.6687 23.6474C21.3381 23.3874 21.9053 23.0387 22.471 22.4723C23.0374 21.9064 23.3852 21.3383 23.6461 20.6688C23.8964 20.0212 24.0683 19.2811 24.1192 18.1976C24.168 17.1116 24.1807 16.7654 24.1807 14.0002C24.1807 11.235 24.168 10.8879 24.1192 9.80187C24.0683 8.71793 23.8964 7.97806 23.6461 7.33066C23.3852 6.661 23.0374 6.09293 22.471 5.527C21.9047 4.96063 21.3383 4.61275 20.6681 4.3529C20.019 4.10112 19.2787 3.92951 18.1948 3.87987C17.1088 3.83045 16.763 3.81836 13.997 3.81836H14.0002ZM13.0869 5.65321C13.3579 5.65278 13.6604 5.65321 14.0002 5.65321C16.7187 5.65321 17.0409 5.66297 18.1144 5.71175C19.1071 5.75715 19.6459 5.92303 20.0048 6.06239C20.4799 6.24693 20.8187 6.46754 21.1748 6.8239C21.5312 7.18027 21.7518 7.51966 21.9367 7.99481C22.0761 8.3533 22.2422 8.89209 22.2873 9.88481C22.3361 10.9581 22.3467 11.2806 22.3467 13.9978C22.3467 16.7151 22.3361 17.0375 22.2873 18.1109C22.2419 19.1036 22.0761 19.6424 21.9367 20.0009C21.7522 20.476 21.5312 20.8144 21.1748 21.1705C20.8184 21.5269 20.4801 21.7475 20.0048 21.932C19.6463 22.072 19.1071 22.2375 18.1144 22.2829C17.0411 22.3317 16.7187 22.3423 14.0002 22.3423C11.2816 22.3423 10.9594 22.3317 9.88605 22.2829C8.89335 22.2371 8.35458 22.0712 7.99547 21.9318C7.52033 21.7473 7.18095 21.5267 6.8246 21.1703C6.46825 20.8139 6.24765 20.4754 6.06268 20C5.92332 19.6415 5.75724 19.1028 5.71206 18.11C5.66327 17.0367 5.65351 16.7143 5.65351 13.9953C5.65351 11.2763 5.66327 10.9556 5.71206 9.88227C5.75745 8.88954 5.92332 8.35075 6.06268 7.99184C6.24722 7.51669 6.46825 7.1773 6.8246 6.82093C7.18095 6.46457 7.52033 6.24397 7.99547 6.059C8.35437 5.919 8.89335 5.75354 9.88605 5.70794C10.8253 5.66551 11.1893 5.65278 13.0869 5.65066V5.65321ZM19.435 7.34381C18.7605 7.34381 18.2133 7.89045 18.2133 8.56521C18.2133 9.23975 18.7605 9.78703 19.435 9.78703C20.1096 9.78703 20.6568 9.23975 20.6568 8.56521C20.6568 7.89066 20.1096 7.34339 19.435 7.34339V7.34381ZM14.0002 8.77139C11.1127 8.77139 8.7716 11.1126 8.7716 14.0002C8.7716 16.8878 11.1127 19.2279 14.0002 19.2279C16.8877 19.2279 19.228 16.8878 19.228 14.0002C19.228 11.1126 16.8875 8.77139 14 8.77139H14.0002ZM14.0002 10.6062C15.8745 10.6062 17.3941 12.1257 17.3941 14.0002C17.3941 15.8745 15.8745 17.3941 14.0002 17.3941C12.1258 17.3941 10.6064 15.8745 10.6064 14.0002C10.6064 12.1257 12.1258 10.6062 14.0002 10.6062Z" fill="#F3F3F3"/>
</g>
<defs>
<radialGradient id="paint0_radial_2953_15070" cx="0" cy="0" r="1" gradientUnits="userSpaceOnUse" gradientTransform="translate(7.5384 29.9091) rotate(-90) scale(27.3273 25.4227)">
<stop stop-color="#FFDD55"/>
<stop offset="0.1" stop-color="#FFDD55"/>
<stop offset="0.5" stop-color="#FF543E"/>
<stop offset="1" stop-color="#C837AB"/>
</radialGradient>
<radialGradient id="paint1_radial_2953_15070" cx="0" cy="0" r="1" gradientUnits="userSpaceOnUse" gradientTransform="translate(-4.40741 2.19826) rotate(78.678) scale(12.2155 50.3642)">
<stop stop-color="#3771C8"/>
<stop offset="0.128" stop-color="#3771C8"/>
<stop offset="1" stop-color="#6600FF" stop-opacity="0"/>
</radialGradient>
<clipPath id="clip0_2953_15070">
<rect width="28" height="28" fill="white"/>
</clipPath>
</defs>
</svg>
