<svg width="28" height="28" viewBox="0 0 28 28" fill="none" xmlns="http://www.w3.org/2000/svg">
<g clip-path="url(#clip0_2953_15074)">
<path fill-rule="evenodd" clip-rule="evenodd" d="M6.32324 0H21.6768C23.3523 0.00483206 24.9579 0.675685 26.1427 1.866C27.3274 3.05632 27.9952 4.66935 28 6.35271V21.6496C27.9946 23.3325 27.3266 24.945 26.1419 26.1348C24.9571 27.3246 23.3519 27.9952 21.6768 28H6.32324C4.64809 27.9952 3.04288 27.3246 1.85815 26.1348C0.673417 24.945 0.00541045 23.3325 0 21.6496V6.35271C0.00480964 4.66935 0.672551 3.05632 1.85735 1.866C3.04215 0.675685 4.64769 0.00483206 6.32324 0V0Z" fill="#0A66C2"/>
<path fill-rule="evenodd" clip-rule="evenodd" d="M11.2087 10.8535H14.7474V12.6849H14.7975C15.292 11.7967 16.4951 10.8535 18.293 10.8535C22.0277 10.8535 22.7181 13.1885 22.7181 16.2264V22.6501H19.029V16.9406C19.029 15.6335 19.0016 13.9509 17.1104 13.9509C15.2191 13.9509 14.8955 15.3725 14.8955 16.8468V22.6615H11.2087V10.8535ZM9.11458 7.27766C9.11458 7.65889 9.00206 8.03157 8.79124 8.34855C8.58042 8.66554 8.28077 8.9126 7.93019 9.05849C7.57961 9.20439 7.19384 9.24256 6.82166 9.16818C6.44948 9.09381 6.10762 8.91022 5.8393 8.64065C5.57097 8.37108 5.38824 8.02762 5.31421 7.65371C5.24018 7.2798 5.27817 6.89223 5.42339 6.54001C5.56861 6.1878 5.81452 5.88675 6.13004 5.67495C6.44555 5.46315 6.8165 5.3501 7.19596 5.3501C7.70463 5.3507 8.19229 5.55398 8.55197 5.91534C8.91165 6.27669 9.11398 6.76662 9.11458 7.27766ZM5.2819 10.8535H9.11458V22.6501H5.2819V10.8535Z" fill="#F3F3F3"/>
</g>
<defs>
<clipPath id="clip0_2953_15074">
<rect width="28" height="28" fill="white"/>
</clipPath>
</defs>
</svg>
