<svg width="146" height="41" viewBox="0 0 146 41" fill="none" xmlns="http://www.w3.org/2000/svg">
<g clip-path="url(#clip0_273_851)">
<path d="M0.683594 32.3928H1.5918V38.8674L1.51367 39.8928H0.683594V32.3928ZM5.16113 37.2073V37.3098C5.16113 37.6939 5.11556 38.0504 5.02441 38.3792C4.93327 38.7047 4.7998 38.9879 4.62402 39.2288C4.44824 39.4696 4.2334 39.6568 3.97949 39.7903C3.72559 39.9237 3.43424 39.9905 3.10547 39.9905C2.77018 39.9905 2.47559 39.9335 2.22168 39.8196C1.97103 39.7024 1.75944 39.5347 1.58691 39.3167C1.41439 39.0986 1.27604 38.8349 1.17188 38.5256C1.07096 38.2164 1.00098 37.8681 0.961914 37.4807V37.0315C1.00098 36.6409 1.07096 36.2909 1.17188 35.9817C1.27604 35.6724 1.41439 35.4088 1.58691 35.1907C1.75944 34.9693 1.97103 34.8017 2.22168 34.6877C2.47233 34.5706 2.76367 34.512 3.0957 34.512C3.42773 34.512 3.72233 34.5771 3.97949 34.7073C4.23665 34.8342 4.4515 35.0165 4.62402 35.2542C4.7998 35.4918 4.93327 35.7766 5.02441 36.1086C5.11556 36.4374 5.16113 36.8036 5.16113 37.2073ZM4.25293 37.3098V37.2073C4.25293 36.9436 4.22852 36.6962 4.17969 36.4651C4.13086 36.2307 4.05273 36.0256 3.94531 35.8499C3.83789 35.6708 3.69629 35.5308 3.52051 35.4299C3.34473 35.3258 3.12826 35.2737 2.87109 35.2737C2.64323 35.2737 2.44466 35.3127 2.27539 35.3909C2.10938 35.469 1.96777 35.5748 1.85059 35.7083C1.7334 35.8385 1.63737 35.9882 1.5625 36.1575C1.49089 36.3235 1.43717 36.496 1.40137 36.675V37.8518C1.45345 38.0797 1.53809 38.2994 1.65527 38.511C1.77572 38.7193 1.93522 38.8902 2.13379 39.0237C2.33561 39.1571 2.58464 39.2239 2.88086 39.2239C3.125 39.2239 3.33333 39.175 3.50586 39.0774C3.68164 38.9765 3.82324 38.8381 3.93066 38.6624C4.04134 38.4866 4.12272 38.2831 4.1748 38.052C4.22689 37.8209 4.25293 37.5735 4.25293 37.3098ZM7.72949 39.3459L9.19922 34.6096H10.166L8.04688 40.7083C7.99805 40.8385 7.93294 40.9784 7.85156 41.1282C7.77344 41.2812 7.67253 41.426 7.54883 41.5627C7.42513 41.6995 7.27539 41.8101 7.09961 41.8948C6.92708 41.9827 6.72038 42.0266 6.47949 42.0266C6.40788 42.0266 6.31673 42.0168 6.20605 41.9973C6.09538 41.9778 6.01725 41.9615 5.97168 41.9485L5.9668 41.2161C5.99284 41.2193 6.03353 41.2226 6.08887 41.2258C6.14746 41.2323 6.18815 41.2356 6.21094 41.2356C6.41602 41.2356 6.59017 41.2079 6.7334 41.1526C6.87663 41.1005 6.99707 41.011 7.09473 40.884C7.19564 40.7603 7.2819 40.5894 7.35352 40.3713L7.72949 39.3459ZM6.65039 34.6096L8.02246 38.7112L8.25684 39.6633L7.60742 39.9954L5.66406 34.6096H6.65039ZM19.0674 32.7834V39.8928H18.1201L14.541 34.4094V39.8928H13.5986V32.7834H14.541L18.1348 38.2815V32.7834H19.0674ZM23.457 33.4133L21.1035 39.8928H20.1416L22.8516 32.7834H23.4717L23.457 33.4133ZM25.4297 39.8928L23.0713 33.4133L23.0566 32.7834H23.6768L26.3965 39.8928H25.4297ZM25.3076 37.261V38.0325H21.3135V37.261H25.3076ZM29.9707 37.1047H28.0713V36.3381H29.9707C30.3385 36.3381 30.6364 36.2795 30.8643 36.1624C31.0921 36.0452 31.2581 35.8824 31.3623 35.6741C31.4697 35.4657 31.5234 35.2281 31.5234 34.9612C31.5234 34.717 31.4697 34.4875 31.3623 34.2727C31.2581 34.0579 31.0921 33.8853 30.8643 33.7551C30.6364 33.6217 30.3385 33.5549 29.9707 33.5549H28.291V39.8928H27.3486V32.7834H29.9707C30.5078 32.7834 30.9619 32.8762 31.333 33.0618C31.7041 33.2473 31.9857 33.5045 32.1777 33.8333C32.3698 34.1588 32.4658 34.5315 32.4658 34.9514C32.4658 35.4071 32.3698 35.7961 32.1777 36.1184C31.9857 36.4407 31.7041 36.6864 31.333 36.8557C30.9619 37.0217 30.5078 37.1047 29.9707 37.1047ZM35.6152 33.4133L33.2617 39.8928H32.2998L35.0098 32.7834H35.6299L35.6152 33.4133ZM37.5879 39.8928L35.2295 33.4133L35.2148 32.7834H35.835L38.5547 39.8928H37.5879ZM37.4658 37.261V38.0325H33.4717V37.261H37.4658Z" fill="#AFAFAF"/>
<path d="M50.4901 28.8557L55.8235 40.2734H54.5895L52.7918 36.5159H47.8559L46.0737 40.2734H44.8008L50.2017 28.8557H50.4901ZM50.3472 31.2819L48.3858 35.4182H52.2956L50.3472 31.2819Z" fill="#AFAFAF"/>
<path d="M57.6328 28.8557H58.7759V35.7504C58.764 36.2612 58.7796 36.7723 58.8226 37.2814C58.8662 37.6832 59.0061 38.0687 59.2305 38.405C59.4757 38.7396 59.8057 39.0029 60.1865 39.1679C60.5912 39.3655 61.035 39.4701 61.4854 39.4741C61.8616 39.4743 62.2332 39.3919 62.574 39.2328C62.9106 39.0787 63.208 38.8507 63.4442 38.5659C63.6897 38.261 63.8669 37.907 63.9638 37.5279C64.0654 36.9377 64.1046 36.3384 64.0807 35.74V28.8557H65.2056V35.7504C65.2298 36.5858 65.1291 37.4202 64.9068 38.226C64.6857 38.8825 64.2675 39.4551 63.7092 39.866C63.087 40.3411 62.3203 40.5884 61.5374 40.5666C60.698 40.5904 59.8711 40.3597 59.1656 39.9049C58.5312 39.4981 58.0624 38.879 57.8432 38.1585C57.703 37.7148 57.6328 36.9103 57.6328 35.7504V28.8557Z" fill="#AFAFAF"/>
<path d="M66.8848 29.9741V28.8557H73.1508V29.9741H70.6023V40.2786H69.4359V29.9741H66.8848Z" fill="#AFAFAF"/>
<path d="M88.1172 40.2786L89.7538 28.8608H89.9409L94.5885 38.2337L99.1945 28.8608H99.3763L101.023 40.2786H99.9011L98.771 32.1097L94.7287 40.2786H94.4352L90.3436 32.0474L89.2213 40.2786H88.1172Z" fill="#AFAFAF"/>
<path d="M115.971 29.9741V28.8557H122.237V29.9741H119.688V40.2786H118.522V29.9741H115.971Z" fill="#AFAFAF"/>
<path d="M123.723 28.8557H124.866V40.2734H123.723V28.8557Z" fill="#AFAFAF"/>
<path d="M126.615 28.8557H127.86L131.65 37.6784L135.5 28.8557H136.744L131.769 40.2734H131.51L126.615 28.8557Z" fill="#AFAFAF"/>
<path d="M138.672 28.8557H145.221V29.9741H139.815V33.5551H145.18V34.6709H139.815V39.1601H145.18V40.2786H138.672V28.8557Z" fill="#AFAFAF"/>
<path d="M80.3432 28.8036C79.2016 28.783 78.0798 29.1024 77.1206 29.7211C76.1614 30.3398 75.4084 31.2297 74.9575 32.2775C74.5066 33.3253 74.3783 34.4835 74.5889 35.6044C74.7995 36.7253 75.3394 37.7582 76.1399 38.5715C76.9405 39.3847 77.9653 39.9414 79.0837 40.1707C80.2022 40.3999 81.3637 40.2913 82.4201 39.8587C83.4766 39.426 84.3801 38.689 85.0156 37.7415C85.6511 36.794 85.9898 35.6789 85.9884 34.5384C86.0002 33.0305 85.4122 31.5795 84.3538 30.5043C83.2953 29.429 81.8529 28.8173 80.3432 28.8036V28.8036ZM83.245 33.8715L80.1926 39.3935C80.184 39.4084 80.1707 39.42 80.1549 39.4266C80.139 39.4332 80.1214 39.4343 80.1048 39.4299C80.0883 39.4255 80.0736 39.4157 80.0632 39.4021C80.0527 39.3885 80.0471 39.3718 80.0471 39.3546L80.0289 35.5504H77.5064C77.4925 35.5495 77.4791 35.5451 77.4674 35.5376C77.4558 35.5302 77.4461 35.5199 77.4394 35.5078C77.4327 35.4957 77.4291 35.4821 77.429 35.4682C77.4289 35.4544 77.4323 35.4407 77.4388 35.4285L80.5563 29.6989C80.5641 29.6821 80.5776 29.6687 80.5944 29.661C80.6112 29.6533 80.6301 29.6519 80.6479 29.6568C80.6657 29.6618 80.6812 29.673 80.6915 29.6883C80.7018 29.7036 80.7064 29.722 80.7043 29.7404L80.7251 33.7522H83.1723C83.1855 33.7524 83.1983 33.7559 83.2098 33.7622C83.2213 33.7686 83.2311 33.7777 83.2383 33.7887C83.2455 33.7997 83.2498 33.8123 83.251 33.8254C83.2522 33.8385 83.2501 33.8516 83.245 33.8637V33.8715Z" fill="#AFAFAF"/>
<path d="M0 20.2404V0.495544H4.10982C7.06619 0.495544 9.21203 0.733414 10.5473 1.20915C12.3995 1.82895 13.9853 3.05981 15.0442 4.69934C16.1249 6.35491 16.6644 8.32793 16.6627 10.6184C16.7018 12.442 16.2592 14.2437 15.3794 15.842C14.6172 17.2527 13.4586 18.41 12.0463 19.1713C10.6798 19.884 8.7652 20.2404 6.30242 20.2404H0ZM1.89644 18.3747H4.17996C6.91292 18.3747 8.80849 18.2017 9.86669 17.8557C11.2979 17.4157 12.5354 16.5001 13.3738 15.2607C14.2259 14.0048 14.652 12.4686 14.652 10.6521C14.652 8.74917 14.1904 7.12215 13.2673 5.77105C12.3466 4.42276 10.9813 3.44011 9.40947 2.99447C8.17981 2.61907 6.14482 2.4305 3.30448 2.42877H1.90683L1.89644 18.3747Z" fill="#AFAFAF"/>
<path d="M32.4975 15.3983L34.0822 16.2313C33.6332 17.1554 33.0227 17.992 32.2793 18.7017C31.6108 19.3199 30.8305 19.8051 29.9802 20.1315C29.0548 20.4712 28.0746 20.6375 27.0887 20.6219C24.7022 20.6219 22.836 19.8434 21.4904 18.2865C20.187 16.8246 19.4725 14.9321 19.4848 12.9746C19.4661 11.1764 20.0689 9.42675 21.1916 8.0209C22.636 6.17504 24.5688 5.25297 26.99 5.2547C29.484 5.2547 31.4757 6.19926 32.9651 8.08837C34.025 9.42217 34.5637 11.0864 34.581 13.081H21.4098C21.4445 14.7781 21.9865 16.169 23.0361 17.2537C23.5354 17.7823 24.1402 18.2003 24.8115 18.4806C25.4828 18.7608 26.2055 18.8972 26.9329 18.8807C27.6709 18.8822 28.4034 18.754 29.0969 18.5019C29.7536 18.2681 30.362 17.9163 30.892 17.4639C31.5278 16.8596 32.069 16.1633 32.4975 15.3983V15.3983ZM32.4975 11.4644C32.3068 10.5948 31.9331 9.77574 31.4012 9.06147C30.8878 8.43685 30.2358 7.94022 29.497 7.6109C28.7211 7.24869 27.8751 7.0609 27.0186 7.06078C25.6543 7.03506 24.3314 7.52965 23.3192 8.44388C22.5659 9.11683 21.9961 10.1237 21.6099 11.4644H32.4975Z" fill="#AFAFAF"/>
<path d="M36.6895 5.63885H38.6924L43.5998 16.2781L48.45 5.63885H50.4659L43.7738 20.2406H43.4231L36.6895 5.63885Z" fill="#AFAFAF"/>
<path d="M65.6407 15.3983L67.2254 16.2313C66.7764 17.1554 66.1659 17.992 65.4225 18.7017C64.7556 19.3193 63.9771 19.8046 63.1286 20.1315C62.2032 20.4712 61.223 20.6375 60.2372 20.6219C57.8506 20.6219 55.9844 19.8434 54.6388 18.2865C53.3298 16.827 52.6096 14.9342 52.6176 12.9746C52.5989 11.1764 53.2017 9.42675 54.3244 8.0209C55.7688 6.17504 57.7016 5.25297 60.1228 5.2547C62.6168 5.2547 64.6085 6.19926 66.0979 8.08837C67.1579 9.42217 67.6965 11.0864 67.7138 13.081H54.5556C54.5885 14.7781 55.1306 16.169 56.1819 17.2537C56.6812 17.7823 57.286 18.2003 57.9573 18.4806C58.6286 18.7608 59.3513 18.8972 60.0787 18.8807C60.8206 18.881 61.5568 18.7501 62.2531 18.4941C62.9098 18.2603 63.5182 17.9086 64.0482 17.4561C64.6787 16.8533 65.2155 16.1597 65.6407 15.3983ZM65.6407 11.4644C65.45 10.5948 65.0763 9.77574 64.5444 9.06147C64.031 8.43685 63.379 7.94022 62.6402 7.6109C61.8603 7.24684 61.0097 7.059 60.1488 7.06078C58.7845 7.03506 57.4616 7.52965 56.4495 8.44388C55.6961 9.11683 55.1263 10.1237 54.7401 11.4644H65.6407Z" fill="#AFAFAF"/>
<path d="M70.9355 0H72.819V20.2405H70.9355V0Z" fill="#AFAFAF"/>
<path d="M83.6516 5.26261C84.7072 5.23729 85.7555 5.44298 86.7231 5.86525C87.6907 6.28753 88.554 6.91615 89.2526 7.70704C90.5779 9.13876 91.3007 11.025 91.2711 12.9748C91.2895 14.9691 90.5225 16.8907 89.1357 18.3255C87.7138 19.8513 85.8849 20.6142 83.649 20.6142C81.4131 20.6142 79.5799 19.8513 78.1493 18.3255C76.7642 16.8898 75.9983 14.9685 76.0165 12.9748C75.9872 11.0266 76.7101 9.14207 78.035 7.71222C78.735 6.91864 79.6007 6.28801 80.5711 5.86478C81.5416 5.44155 82.5931 5.23599 83.6516 5.26261ZM83.6516 7.10242C82.8954 7.09204 82.1454 7.23974 81.4497 7.53602C80.754 7.83231 80.128 8.27063 79.6119 8.82286C79.0648 9.37451 78.6344 10.0306 78.3465 10.7519C78.0587 11.4732 77.9191 12.2451 77.9363 13.0215C77.9331 14.0578 78.2018 15.0768 78.7157 15.9771C79.199 16.86 79.9186 17.5913 80.794 18.0894C81.6727 18.5777 82.6616 18.834 83.6672 18.834C84.6728 18.834 85.6617 18.5777 86.5404 18.0894C87.4151 17.5904 88.1345 16.8593 88.6187 15.9771C89.1326 15.0768 89.4013 14.0578 89.3981 13.0215C89.4088 12.2414 89.2612 11.4672 88.9643 10.7456C88.6674 10.024 88.2273 9.36998 87.6705 8.82286C87.1563 8.27387 86.5336 7.83749 85.8418 7.54134C85.15 7.24519 84.4042 7.09573 83.6516 7.10242Z" fill="#AFAFAF"/>
<path d="M94.7773 5.63879H96.6608V8.32455C97.3302 7.37005 98.2124 6.58389 99.2379 6.02803C100.236 5.50959 101.347 5.24657 102.472 5.26253C103.468 5.24881 104.455 5.44091 105.372 5.82675C106.29 6.21259 107.117 6.78383 107.803 7.50455C108.519 8.20732 109.085 9.04815 109.466 9.97599C109.847 10.9038 110.035 11.8993 110.019 12.902C110.037 13.9152 109.851 14.9217 109.472 15.8615C109.093 16.8013 108.528 17.6552 107.811 18.3721C106.733 19.4863 105.331 20.233 103.805 20.5065C102.278 20.7799 100.704 20.5661 99.3054 19.8954C98.2792 19.3721 97.3774 18.635 96.6608 17.7338V25.5887H94.7773V5.63879ZM102.311 7.07379C101.545 7.0575 100.783 7.20066 100.075 7.49417C99.3674 7.78767 98.7283 8.22511 98.1987 8.77867C97.6498 9.33669 97.2191 9.99958 96.9326 10.7277C96.646 11.4558 96.5094 12.2341 96.5309 13.0162C96.5144 14.0602 96.7705 15.0905 97.2739 16.0056C97.7726 16.8934 98.5118 17.6229 99.4067 18.1101C100.299 18.6204 101.309 18.8887 102.337 18.8885C103.343 18.894 104.331 18.6249 105.195 18.1101C106.087 17.583 106.821 16.8255 107.32 15.9173C107.836 15.0193 108.107 14.0021 108.107 12.9669C108.107 11.9316 107.836 10.9144 107.32 10.0164C106.827 9.11953 106.101 8.37245 105.218 7.85439C104.335 7.33634 103.328 7.06661 102.303 7.07379H102.311Z" fill="#AFAFAF"/>
<path d="M125.838 15.3983L127.425 16.2313C126.975 17.1548 126.365 17.9913 125.622 18.7017C124.953 19.32 124.172 19.8052 123.321 20.1315C122.395 20.4712 121.415 20.6375 120.429 20.6219C118.044 20.6219 116.179 19.8434 114.833 18.2865C113.525 16.8271 112.805 14.934 112.815 12.9746C112.796 11.1759 113.4 9.42598 114.524 8.0209C115.969 6.17504 117.901 5.25297 120.323 5.2547C122.813 5.2547 124.805 6.19926 126.298 8.08837C127.356 9.42217 127.894 11.0864 127.911 13.081H114.75C114.787 14.7781 115.33 16.169 116.379 17.2537C116.878 17.7823 117.483 18.2003 118.155 18.4806C118.826 18.7608 119.549 18.8972 120.276 18.8807C121.017 18.8807 121.752 18.7498 122.448 18.4941C123.105 18.2601 123.714 17.9083 124.245 17.4561C124.876 16.8532 125.413 16.1597 125.838 15.3983V15.3983ZM125.838 11.4644C125.649 10.5941 125.276 9.77455 124.742 9.06147C124.228 8.43685 123.576 7.94022 122.837 7.6109C122.058 7.24688 121.209 7.05904 120.349 7.06078C118.983 7.03373 117.658 7.52841 116.644 8.44388C115.891 9.11683 115.322 10.1237 114.937 11.4644H125.838Z" fill="#AFAFAF"/>
<path d="M146.014 0V20.2405H144.159V17.7338C143.439 18.6362 142.534 19.3733 141.504 19.8954C140.103 20.5658 138.526 20.7794 136.997 20.506C135.468 20.2327 134.064 19.4862 132.983 18.3721C132.267 17.655 131.703 16.8009 131.325 15.861C130.948 14.921 130.764 13.9146 130.785 12.902C130.77 11.8986 130.96 10.9027 131.343 9.97484C131.726 9.04698 132.293 8.20653 133.011 7.50456C133.698 6.78394 134.527 6.21282 135.445 5.82702C136.363 5.44121 137.351 5.24904 138.347 5.26253C139.48 5.24605 140.599 5.50899 141.605 6.02804C142.628 6.58176 143.505 7.36855 144.166 8.32456V0H146.014ZM138.493 7.0738C137.47 7.06741 136.464 7.33693 135.581 7.85394C134.699 8.37094 133.973 9.11625 133.479 10.0113C132.962 10.909 132.691 11.9263 132.691 12.9617C132.691 13.9971 132.962 15.0144 133.479 15.9121C133.978 16.8214 134.714 17.579 135.609 18.1049C136.473 18.6187 137.461 18.8878 138.467 18.8833C139.494 18.8838 140.503 18.6154 141.395 18.1049C142.286 17.6153 143.023 16.8864 143.522 16.0004C144.026 15.0853 144.282 14.055 144.265 13.011C144.287 12.2287 144.15 11.4501 143.863 10.7219C143.576 9.99377 143.145 9.33103 142.595 8.77348C142.066 8.22255 141.428 7.78709 140.722 7.49455C140.016 7.20202 139.257 7.05876 138.493 7.0738Z" fill="#AFAFAF"/>
<path d="M108.985 40.3097C112.161 40.3097 114.734 37.7387 114.734 34.5671C114.734 31.3956 112.161 28.8245 108.985 28.8245C105.81 28.8245 103.236 31.3956 103.236 34.5671C103.236 37.7387 105.81 40.3097 108.985 40.3097Z" fill="#AFAFAF"/>
</g>
<defs>
<clipPath id="clip0_273_851">
<rect width="146" height="41" fill="white"/>
</clipPath>
</defs>
</svg>
