<svg width="28" height="28" viewBox="0 0 28 28" fill="none" xmlns="http://www.w3.org/2000/svg">
<g clip-path="url(#clip0_202_3131)">
<path d="M14.0074 0.212158C8.25023 0.212158 6.56646 0.218098 6.23917 0.245249C5.05769 0.343461 4.3225 0.529492 3.52155 0.928279C2.9043 1.23479 2.41749 1.5901 1.93705 2.08816C1.06208 2.99646 0.531793 4.11392 0.33983 5.44222C0.246499 6.08707 0.219348 6.21858 0.213833 9.5124C0.211712 10.6103 0.213833 12.0553 0.213833 13.9935C0.213833 19.7462 0.220197 21.4283 0.247772 21.755C0.343223 22.9047 0.523521 23.628 0.905328 24.4192C1.635 25.9338 3.0286 27.0707 4.67037 27.495C5.23883 27.6413 5.86669 27.7219 6.67273 27.7601C7.01423 27.775 10.495 27.7856 13.978 27.7856C17.4609 27.7856 20.9438 27.7813 21.2768 27.7644C22.2101 27.7205 22.7521 27.6477 23.3513 27.4929C25.0037 27.0665 26.3718 25.9465 27.1164 24.4107C27.4907 23.6386 27.6806 22.8877 27.7665 21.798C27.7852 21.5605 27.793 17.7726 27.793 13.9899C27.793 10.2065 27.7845 6.42561 27.7659 6.18804C27.6789 5.08076 27.489 4.33622 27.1026 3.54925C26.7855 2.90504 26.4333 2.42395 25.9221 1.93204C25.0098 1.06064 23.8941 0.53034 22.5646 0.338582C21.9204 0.245461 21.7921 0.217885 18.4958 0.212158H14.0074Z" fill="url(#paint0_radial_202_3131)"/>
<path d="M14.0074 0.212158C8.25023 0.212158 6.56646 0.218098 6.23917 0.245249C5.05769 0.343461 4.3225 0.529492 3.52155 0.928279C2.9043 1.23479 2.41749 1.5901 1.93705 2.08816C1.06208 2.99646 0.531793 4.11392 0.33983 5.44222C0.246499 6.08707 0.219348 6.21858 0.213833 9.5124C0.211712 10.6103 0.213833 12.0553 0.213833 13.9935C0.213833 19.7462 0.220197 21.4283 0.247772 21.755C0.343223 22.9047 0.523521 23.628 0.905328 24.4192C1.635 25.9338 3.0286 27.0707 4.67037 27.495C5.23883 27.6413 5.86669 27.7219 6.67273 27.7601C7.01423 27.775 10.495 27.7856 13.978 27.7856C17.4609 27.7856 20.9438 27.7813 21.2768 27.7644C22.2101 27.7205 22.7521 27.6477 23.3513 27.4929C25.0037 27.0665 26.3718 25.9465 27.1164 24.4107C27.4907 23.6386 27.6806 22.8877 27.7665 21.798C27.7852 21.5605 27.793 17.7726 27.793 13.9899C27.793 10.2065 27.7845 6.42561 27.7659 6.18804C27.6789 5.08076 27.489 4.33622 27.1026 3.54925C26.7855 2.90504 26.4333 2.42395 25.9221 1.93204C25.0098 1.06064 23.8941 0.53034 22.5646 0.338582C21.9204 0.245461 21.7921 0.217885 18.4958 0.212158H14.0074Z" fill="url(#paint1_radial_202_3131)"/>
<path d="M14.0007 3.81812C11.2356 3.81812 10.8886 3.83021 9.80254 3.87963C8.71864 3.92927 7.97878 4.10087 7.3314 4.35266C6.66176 4.61272 6.09371 4.9606 5.52779 5.52675C4.96145 6.09269 4.61358 6.66075 4.35268 7.33021C4.10026 7.97781 3.92845 8.7179 3.87966 9.80142C3.83109 10.8875 3.81836 11.2347 3.81836 13.9999C3.81836 16.7651 3.83066 17.1111 3.87987 18.1972C3.92972 19.2811 4.10132 20.021 4.35289 20.6684C4.61315 21.3381 4.96102 21.9061 5.52716 22.4721C6.09287 23.0384 6.66091 23.3871 7.33013 23.6472C7.97793 23.899 8.718 24.0706 9.80169 24.1202C10.8877 24.1697 11.2345 24.1817 13.9994 24.1817C16.7648 24.1817 17.1107 24.1697 18.1968 24.1202C19.2807 24.0706 20.0214 23.899 20.6692 23.6472C21.3386 23.3871 21.9058 23.0384 22.4715 22.4721C23.0379 21.9061 23.3857 21.3381 23.6466 20.6686C23.8969 20.021 24.0687 19.2809 24.1197 18.1974C24.1684 17.1113 24.1812 16.7651 24.1812 13.9999C24.1812 11.2347 24.1684 10.8877 24.1197 9.80163C24.0687 8.71769 23.8969 7.97781 23.6466 7.33042C23.3857 6.66075 23.0379 6.09269 22.4715 5.52675C21.9052 4.96039 21.3388 4.61251 20.6685 4.35266C20.0195 4.10087 19.2792 3.92927 18.1953 3.87963C17.1093 3.83021 16.7635 3.81812 13.9975 3.81812H14.0007ZM13.0874 5.65296C13.3584 5.65254 13.6609 5.65296 14.0007 5.65296C16.7192 5.65296 17.0414 5.66272 18.1149 5.71151C19.1076 5.7569 19.6464 5.92278 20.0053 6.06215C20.4804 6.24669 20.8191 6.4673 21.1753 6.82366C21.5316 7.18002 21.7522 7.51942 21.9372 7.99457C22.0766 8.35305 22.2427 8.89184 22.2878 9.88457C22.3366 10.9579 22.3472 11.2803 22.3472 13.9976C22.3472 16.7149 22.3366 17.0373 22.2878 18.1106C22.2424 19.1034 22.0766 19.6421 21.9372 20.0006C21.7527 20.4758 21.5316 20.8141 21.1753 21.1703C20.8189 21.5266 20.4806 21.7472 20.0053 21.9318C19.6468 22.0718 19.1076 22.2372 18.1149 22.2826C17.0416 22.3314 16.7192 22.342 14.0007 22.342C11.282 22.342 10.9598 22.3314 9.88654 22.2826C8.89384 22.2368 8.35507 22.0709 7.99596 21.9316C7.52082 21.747 7.18144 21.5264 6.82509 21.1701C6.46873 20.8137 6.24813 20.4751 6.06317 19.9998C5.92381 19.6413 5.75773 19.1025 5.71254 18.1098C5.66376 17.0364 5.654 16.714 5.654 13.9951C5.654 11.2761 5.66376 10.9554 5.71254 9.88202C5.75794 8.8893 5.92381 8.35051 6.06317 7.9916C6.24771 7.51645 6.46873 7.17705 6.82509 6.82069C7.18144 6.46433 7.52082 6.24372 7.99596 6.05875C8.35486 5.91875 8.89384 5.7533 9.88654 5.70769C10.8258 5.66527 11.1898 5.65254 13.0874 5.65042V5.65296ZM19.4355 7.34357C18.761 7.34357 18.2137 7.89021 18.2137 8.56496C18.2137 9.23951 18.761 9.78678 19.4355 9.78678C20.11 9.78678 20.6573 9.23951 20.6573 8.56496C20.6573 7.89042 20.11 7.34315 19.4355 7.34315V7.34357ZM14.0007 8.77114C11.1132 8.77114 8.77209 11.1123 8.77209 13.9999C8.77209 16.8875 11.1132 19.2277 14.0007 19.2277C16.8882 19.2277 19.2285 16.8875 19.2285 13.9999C19.2285 11.1123 16.888 8.77114 14.0005 8.77114H14.0007ZM14.0007 10.606C15.875 10.606 17.3946 12.1254 17.3946 13.9999C17.3946 15.8742 15.875 17.3939 14.0007 17.3939C12.1263 17.3939 10.6069 15.8742 10.6069 13.9999C10.6069 12.1254 12.1263 10.606 14.0007 10.606V10.606Z" fill="#F3F3F3"/>
</g>
<defs>
<radialGradient id="paint0_radial_202_3131" cx="0" cy="0" r="1" gradientUnits="userSpaceOnUse" gradientTransform="translate(7.53889 29.9093) rotate(-90) scale(27.3273 25.4227)">
<stop stop-color="#FFDD55"/>
<stop offset="0.1" stop-color="#FFDD55"/>
<stop offset="0.5" stop-color="#FF543E"/>
<stop offset="1" stop-color="#C837AB"/>
</radialGradient>
<radialGradient id="paint1_radial_202_3131" cx="0" cy="0" r="1" gradientUnits="userSpaceOnUse" gradientTransform="translate(-4.40692 2.1985) rotate(78.678) scale(12.2155 50.3642)">
<stop stop-color="#3771C8"/>
<stop offset="0.128" stop-color="#3771C8"/>
<stop offset="1" stop-color="#6600FF" stop-opacity="0"/>
</radialGradient>
<clipPath id="clip0_202_3131">
<rect width="28" height="28" fill="white"/>
</clipPath>
</defs>
</svg>
