<svg width="250" height="150" viewBox="0 0 250 150" fill="none" xmlns="http://www.w3.org/2000/svg">
<g clip-path="url(#clip0_247_950)">
<path d="M212.725 98.727H37.2734V51.2731H212.725V98.727Z" fill="#231F20"/>
<path d="M37.2754 98.727H212.726V51.2731H37.2754V98.727Z" stroke="black" stroke-width="0.5725"/>
<path d="M208.777 94.8008H41.2188V55.1992H208.777V94.8008Z" fill="#FEDD03"/>
<path d="M208.779 55.1992H41.2207V94.8008H208.779V55.1992Z" stroke="#FEDD03" stroke-width="0.5725"/>
<path d="M52.3402 71.8911C49.6003 69.4934 48.409 67.1089 49.5596 65.7449C50.5256 64.7839 54.3957 65.2811 57.4784 68.1438C60.561 71.0052 60.8487 73.664 60.2326 74.3997C59.6154 75.1353 55.8759 74.6047 53.6562 72.8867C53.0797 72.5183 52.3402 71.8911 52.3402 71.8911Z" stroke="black" stroke-width="0.72"/>
<path d="M52.6678 72.0678C51.2715 70.9637 48.1061 67.8972 48.1469 64.9117C48.1469 63.9317 49.2567 62.1325 51.9702 62.2136C54.6825 62.2959 57.2726 63.8899 60.8059 67.6933C64.3416 71.4967 73.7597 82.4013 75.0278 83.8439C76.7549 85.8064 77.5771 87.6056 84.8918 87.6056H198.171" stroke="black" stroke-width="0.72"/>
<path d="M197.516 77.9467C200.256 80.3456 201.447 82.7302 200.297 84.0941C199.331 85.0539 195.461 84.5567 192.377 81.6941C189.294 78.8326 189.008 76.175 189.624 75.4382C190.241 74.7037 193.98 75.2331 196.2 76.9512C196.775 77.3208 197.516 77.9467 197.516 77.9467Z" stroke="black" stroke-width="0.72"/>
<path d="M197.187 77.7691C198.584 78.8731 201.749 81.9408 201.708 84.9251C201.708 85.9076 200.599 87.7055 197.886 87.6232C195.172 87.5422 192.582 85.9469 189.049 82.1447C185.515 78.3425 176.095 67.4356 174.828 65.9941C173.101 64.0304 172.278 62.2325 164.963 62.2325H51.7656" stroke="black" stroke-width="0.72"/>
<path d="M50.7793 65.2931H58.1779" stroke="black" stroke-width="0.77125"/>
<path d="M59.6562 74.6978H67.0549" stroke="black" stroke-width="0.77125"/>
<path d="M182.801 75.1353H190.527" stroke="black" stroke-width="0.77125"/>
<path d="M191.76 84.5388H199.16" stroke="black" stroke-width="0.77125"/>
<path d="M49.2988 67.9805H57.1361" stroke="black" stroke-width="0.515"/>
<path d="M50.832 70.3246H59.217" stroke="black" stroke-width="0.515"/>
<path d="M53.5176 72.7234H65.2453" stroke="black" stroke-width="0.515"/>
<path d="M60.5332 73.4865H65.9039" stroke="black" stroke-width="0.515"/>
<path d="M59.6562 70.7609H63.3286" stroke="black" stroke-width="0.515"/>
<path d="M57.5742 68.145H60.9158" stroke="black" stroke-width="0.515"/>
<path d="M56.0391 66.8907H59.8205" stroke="black" stroke-width="0.515"/>
<path d="M48.1465 65.1763H50.504" stroke="black" stroke-width="0.515"/>
<path d="M48.2559 64.3274H56.9153" stroke="black" stroke-width="0.515"/>
<path d="M48.8594 63.2937H55.6539" stroke="black" stroke-width="0.515"/>
<path d="M56.8066 63.8922H172.552" stroke="black" stroke-width="0.515"/>
<path d="M174.251 65.7926H58.834" stroke="black" stroke-width="0.515"/>
<path d="M60.3145 67.0148H76.339" stroke="black" stroke-width="0.515"/>
<path d="M61.4102 68.3787H76.3392" stroke="black" stroke-width="0.515"/>
<path d="M62.5059 69.6246H76.3382" stroke="black" stroke-width="0.515"/>
<path d="M63.875 70.9803H76.3386" stroke="black" stroke-width="0.515"/>
<path d="M64.8613 72.3275H76.3386" stroke="black" stroke-width="0.515"/>
<path d="M66.2305 73.7595H76.3378" stroke="black" stroke-width="0.515"/>
<path d="M67.7109 75.2164H76.3381" stroke="black" stroke-width="0.515"/>
<path d="M69.7383 77.6869H76.3387" stroke="black" stroke-width="0.515"/>
<path d="M71.5469 79.6482H76.3375" stroke="black" stroke-width="0.515"/>
<path d="M73.1367 81.5558H76.338" stroke="black" stroke-width="0.515"/>
<path d="M74.4531 83.0819H76.3396" stroke="black" stroke-width="0.515"/>
<path d="M75.8789 84.6389H191.68" stroke="black" stroke-width="0.515"/>
<path d="M77.4141 86.0649H193.378" stroke="black" stroke-width="0.515"/>
<path d="M197.598 78.1207H189.926" stroke="black" stroke-width="0.515"/>
<path d="M199.625 80.2477H191.076" stroke="black" stroke-width="0.515"/>
<path d="M172.902 68.0352H176.498" stroke="black" stroke-width="0.515"/>
<path d="M177.978 69.7961H172.902" stroke="black" stroke-width="0.515"/>
<path d="M180.116 72.1248H172.904" stroke="black" stroke-width="0.515"/>
<path d="M181.487 73.5579H172.904" stroke="black" stroke-width="0.515"/>
<path d="M182.334 74.6881H172.906" stroke="black" stroke-width="0.515"/>
<path d="M189.38 76.87H184.502" stroke="black" stroke-width="0.515"/>
<path d="M189.598 77.85H185.16" stroke="black" stroke-width="0.515"/>
<path d="M190.147 78.6678H185.982" stroke="black" stroke-width="0.515"/>
<path d="M184.666 77.4136H172.904" stroke="black" stroke-width="0.515"/>
<path d="M186.256 78.9946H172.904" stroke="black" stroke-width="0.515"/>
<path d="M187.077 79.9746H172.904" stroke="black" stroke-width="0.515"/>
<path d="M172.904 81.2301H188.228" stroke="black" stroke-width="0.515"/>
<path d="M188.941 82.2352H172.904" stroke="black" stroke-width="0.515"/>
<path d="M190.256 83.4191H172.904" stroke="black" stroke-width="0.515"/>
<path d="M190.641 83.6289H195.244" stroke="black" stroke-width="0.515"/>
<path d="M189.762 82.7574H193.598" stroke="black" stroke-width="0.515"/>
<path d="M188.996 81.9396H192.448" stroke="black" stroke-width="0.515"/>
<path d="M188.119 81.012H191.681" stroke="black" stroke-width="0.515"/>
<path d="M193.162 85.8645H201.382" stroke="black" stroke-width="0.515"/>
<path d="M88.8116 78.674V67.2794H85.6318V78.128C85.6318 79.3822 84.2068 79.92 83.3306 79.92C82.8368 79.92 80.8089 79.1021 80.3175 78.6657L79.0566 81.0646C79.0566 81.0646 81.1936 82.9174 83.659 82.9174C86.1256 82.9174 87.2763 81.7191 87.7161 81.2279C88.1536 80.7379 88.8116 79.5456 88.8116 78.674Z" fill="black"/>
<path d="M91.9358 82.9459C92.9198 82.9459 93.7192 82.1519 93.7192 81.1718C93.7192 80.1929 92.9198 79.4001 91.9358 79.4001C90.9518 79.4001 90.1523 80.1929 90.1523 81.1718C90.1523 82.1519 90.9518 82.9459 91.9358 82.9459Z" fill="black"/>
<path d="M111.498 82.9459C112.482 82.9459 113.282 82.1519 113.282 81.1718C113.282 80.1929 112.482 79.4001 111.498 79.4001C110.514 79.4001 109.715 80.1929 109.715 81.1718C109.715 82.1519 110.514 82.9459 111.498 82.9459Z" fill="black"/>
<path d="M104.342 73.5195C105.242 73.5195 105.97 72.7934 105.97 71.9004C105.97 71.0062 105.242 70.2801 104.342 70.2801L102.179 70.2765V73.5064L104.342 73.5195ZM104.652 79.8123C105.623 79.8123 106.411 79.0767 106.411 78.1086C106.411 77.144 105.623 76.3595 104.652 76.3595L102.179 76.3559V79.8028L104.652 79.8123ZM102.179 82.5916H99V67.0001H102.179C103.535 67.0001 102.616 67.0049 105.083 67.0049C108.165 67.0049 109.397 69.6625 109.397 70.726C109.397 71.7895 109.604 73.4253 107.59 74.5699C109.522 75.5511 109.974 76.9401 109.974 78.2493C109.974 79.5584 108.905 82.5844 105.001 82.5844L102.179 82.5916Z" fill="black"/>
<path d="M126.983 67.2795V73.8275H122.433V67.2795H119.256V82.8638L122.433 82.8495V76.5673H126.983V82.8638L130.161 82.8495V67.2795H126.983Z" fill="black"/>
<path d="M139.038 79.9152C140.193 79.9152 141.11 79.0234 141.11 77.874L141.107 67.2842H144.108V76.6484C144.108 79.0472 144.381 80.2455 143.23 81.4449C142.079 82.6443 140.489 83.2715 139.038 83.2715C137.585 83.2715 135.996 82.6443 134.844 81.4449C133.694 80.2455 133.968 79.0472 133.968 76.6484V67.2842H136.968L136.966 77.874C136.966 79.0234 137.883 79.9152 139.038 79.9152Z" fill="black"/>
<path d="M169.607 67.2854H159.824V70.1898H163.114V82.8638H166.32V70.1898H169.607V67.2854Z" fill="black"/>
<path d="M154.646 82.8232L150.412 74.2364V82.8638H147.451V67.2854H150.412L154.501 74.8087L154.518 74.4606V67.2854H157.477V82.8638H154.66L154.646 82.8232Z" fill="black"/>
</g>
<defs>
<clipPath id="clip0_247_950">
<rect width="176" height="48" fill="white" transform="translate(37 51)"/>
</clipPath>
</defs>
</svg>
