<svg width="250" height="150" viewBox="0 0 250 150" fill="none" xmlns="http://www.w3.org/2000/svg">
<path fill-rule="evenodd" clip-rule="evenodd" d="M183.127 96.7588L176.962 89.8459L170.857 96.7588H158.007L170.569 82.6439L158.007 68.529H171.26L177.482 75.3852L183.472 68.529H196.263L183.76 82.5861L196.435 96.7578L183.127 96.7588ZM133.324 96.7588V52.2898H158.007V62.202H143.779V68.529H158.007V78.0648H143.779V86.8194H158.007V96.7588H133.324Z" fill="#D9782D"/>
<path fill-rule="evenodd" clip-rule="evenodd" d="M122.913 52.2898V70.4885H122.798C120.494 67.8384 117.613 66.9164 114.273 66.9164C107.426 66.9164 102.27 71.5719 100.461 77.7233C98.3955 70.9457 93.0723 66.791 85.1796 66.791C78.7686 66.791 73.7072 69.6681 71.0647 74.3563V68.529H57.8128V62.202H72.2725V52.2898H46V96.7588H57.8128V78.0648H69.5853C69.2224 79.5017 69.0413 80.9786 69.0463 82.4606C69.0463 91.7367 76.1337 98.2459 85.1786 98.2459C92.7832 98.2459 97.7944 94.6749 100.446 88.1657H90.3229C88.9547 90.1231 87.9149 90.7024 85.1786 90.7024C82.0036 90.7024 79.2672 87.9344 79.2672 84.6504H99.8794C100.773 92.0171 106.512 98.3714 114.387 98.3714C117.786 98.3714 120.897 96.701 122.798 93.8774H122.913V96.7588H133.323V52.2898H122.913ZM79.5956 78.1979C80.2525 75.3753 82.4422 73.5282 85.1786 73.5282C88.1877 73.5282 90.2683 75.3186 90.8149 78.1979H79.5956ZM116.593 89.9889C112.755 89.9889 110.371 86.4113 110.371 82.6777C110.371 78.6856 112.444 74.8484 116.593 74.8484C120.895 74.8484 122.607 78.6856 122.607 82.6777C122.607 86.4615 120.792 89.9889 116.593 89.9889Z" fill="#F3F3F3"/>
<path fill-rule="evenodd" clip-rule="evenodd" d="M199.281 93.8939C199.282 93.5181 199.357 93.1461 199.501 92.7992C199.646 92.4523 199.857 92.1373 200.124 91.8722C200.39 91.6072 200.706 91.3972 201.054 91.2543C201.401 91.1115 201.774 91.0385 202.15 91.0397C202.524 91.0397 202.895 91.1135 203.241 91.257C203.587 91.4005 203.902 91.6108 204.167 91.8759C204.431 92.1409 204.641 92.4556 204.784 92.8019C204.928 93.1481 205.001 93.5192 205.001 93.8939C205.003 94.2696 204.931 94.642 204.788 94.9897C204.646 95.3375 204.436 95.6536 204.171 95.92C203.906 96.1864 203.591 96.3977 203.244 96.5419C202.897 96.6861 202.525 96.7602 202.15 96.7601C201.773 96.7614 201.399 96.6881 201.051 96.5446C200.702 96.401 200.386 96.19 200.119 95.9236C199.853 95.6572 199.641 95.3408 199.498 94.9924C199.354 94.6441 199.28 94.2707 199.281 93.8939ZM204.501 93.8939C204.5 93.2707 204.253 92.6731 203.812 92.2323C203.371 91.7916 202.774 91.5435 202.151 91.5427C201.525 91.5415 200.925 91.7884 200.482 92.2292C200.038 92.67 199.788 93.2686 199.785 93.8939C199.785 95.202 200.843 96.2593 202.151 96.2593C202.46 96.2584 202.767 96.1965 203.053 96.0772C203.338 95.9578 203.598 95.7833 203.816 95.5636C204.034 95.3439 204.207 95.0834 204.325 94.7969C204.442 94.5104 204.502 94.2035 204.501 93.8939ZM201.541 94.0826V95.537H201.017V92.1755H202.104C202.719 92.1755 203.359 92.3435 203.359 93.104C203.359 93.4902 203.124 93.7957 202.672 93.8884V93.9048C203.139 93.9953 203.193 94.2005 203.243 94.5649C203.29 94.8824 203.328 95.2326 203.444 95.5381H202.773C202.734 95.3493 202.683 95.1355 202.659 94.9358C202.621 94.6467 202.621 94.3805 202.467 94.2212C202.339 94.0837 202.165 94.1001 201.982 94.0837H201.541V94.0826ZM202.094 93.5611C202.59 93.5426 202.704 93.3374 202.704 93.08C202.704 92.8301 202.59 92.6992 202.174 92.6992H201.541V93.5611H202.094Z" fill="#D9782D"/>
</svg>
