<svg width="146" height="41" viewBox="0 0 146 41" fill="none" xmlns="http://www.w3.org/2000/svg">
<g clip-path="url(#clip0_3056_12587)">
<path d="M5.15625 37.3098C5.15625 38.1171 4.9707 38.7665 4.59961 39.2581C4.22852 39.7463 3.73047 39.9905 3.10547 39.9905C2.43815 39.9905 1.9222 39.7545 1.55762 39.2825L1.51367 39.8928H0.683594V32.3928H1.58691V35.1907C1.9515 34.7382 2.45443 34.512 3.0957 34.512C3.73698 34.512 4.23991 34.7545 4.60449 35.2395C4.97233 35.7245 5.15625 36.3886 5.15625 37.2317V37.3098ZM4.25293 37.2073C4.25293 36.592 4.13411 36.1168 3.89648 35.7815C3.65885 35.4462 3.31706 35.2786 2.87109 35.2786C2.27539 35.2786 1.84733 35.5553 1.58691 36.1086V38.3938C1.86361 38.9472 2.29492 39.2239 2.88086 39.2239C3.3138 39.2239 3.65072 39.0562 3.8916 38.7209C4.13249 38.3857 4.25293 37.8811 4.25293 37.2073ZM7.96875 38.5696L9.19922 34.6096H10.166L8.04199 40.7083C7.71322 41.5872 7.19076 42.0266 6.47461 42.0266L6.30371 42.012L5.9668 41.9485V41.2161L6.21094 41.2356C6.51693 41.2356 6.75456 41.1737 6.92383 41.05C7.09635 40.9264 7.23796 40.7001 7.34863 40.3713L7.54883 39.8342L5.66406 34.6096H6.65039L7.96875 38.5696ZM19.0625 39.8928H18.1201L14.541 34.4143V39.8928H13.5986V32.7834H14.541L18.1299 38.2864V32.7834H19.0625V39.8928ZM24.7412 38.0374H21.7627L21.0938 39.8928H20.127L22.8418 32.7834H23.6621L26.3818 39.8928H25.4199L24.7412 38.0374ZM22.0459 37.2659H24.4629L23.252 33.9407L22.0459 37.2659ZM28.2764 37.1096V39.8928H27.3389V32.7834H29.9609C30.7389 32.7834 31.3477 32.982 31.7871 33.3792C32.2298 33.7763 32.4512 34.302 32.4512 34.9563C32.4512 35.6464 32.2347 36.1786 31.8018 36.553C31.3721 36.9241 30.7552 37.1096 29.9512 37.1096H28.2764ZM28.2764 36.343H29.9609C30.4622 36.343 30.8464 36.2258 31.1133 35.9915C31.3802 35.7538 31.5137 35.412 31.5137 34.9661C31.5137 34.5429 31.3802 34.2043 31.1133 33.9504C30.8464 33.6965 30.4801 33.5647 30.0146 33.5549H28.2764V36.343ZM36.8994 38.0374H33.9209L33.252 39.8928H32.2852L35 32.7834H35.8203L38.54 39.8928H37.5781L36.8994 38.0374ZM34.2041 37.2659H36.6211L35.4102 33.9407L34.2041 37.2659Z" fill="#AFAFAF"/>
<path d="M50.4901 28.8556L55.8235 40.2733H54.5895L52.7918 36.5158H47.8559L46.0737 40.2733H44.8008L50.2017 28.8556H50.4901ZM50.3472 31.2819L48.3858 35.4182H52.2956L50.3472 31.2819Z" fill="#AFAFAF"/>
<path d="M57.6328 28.8556H58.7759V35.7503C58.764 36.2611 58.7796 36.7722 58.8226 37.2814C58.8662 37.6832 59.0061 38.0686 59.2305 38.405C59.4757 38.7395 59.8057 39.0028 60.1865 39.1679C60.5912 39.3655 61.035 39.4701 61.4854 39.4741C61.8616 39.4743 62.2332 39.3919 62.574 39.2327C62.9106 39.0786 63.208 38.8507 63.4442 38.5658C63.6897 38.2609 63.8669 37.907 63.9638 37.5279C64.0654 36.9376 64.1046 36.3384 64.0807 35.74V28.8556H65.2056V35.7503C65.2298 36.5858 65.1291 37.4201 64.9068 38.2259C64.6857 38.8824 64.2675 39.455 63.7092 39.8659C63.087 40.3411 62.3203 40.5884 61.5374 40.5665C60.698 40.5903 59.8711 40.3597 59.1656 39.9048C58.5312 39.498 58.0624 38.8789 57.8432 38.1584C57.703 37.7147 57.6328 36.9103 57.6328 35.7503V28.8556Z" fill="#AFAFAF"/>
<path d="M66.8848 29.974V28.8556H73.1508V29.974H70.6023V40.2785H69.4359V29.974H66.8848Z" fill="#AFAFAF"/>
<path d="M88.1172 40.2786L89.7538 28.8608H89.9409L94.5885 38.2337L99.1945 28.8608H99.3763L101.023 40.2786H99.9011L98.771 32.1097L94.7287 40.2786H94.4352L90.3436 32.0474L89.2213 40.2786H88.1172Z" fill="#AFAFAF"/>
<path d="M115.971 29.974V28.8556H122.237V29.974H119.688V40.2785H118.522V29.974H115.971Z" fill="#AFAFAF"/>
<path d="M123.723 28.8556H124.866V40.2733H123.723V28.8556Z" fill="#AFAFAF"/>
<path d="M126.615 28.8556H127.86L131.65 37.6784L135.5 28.8556H136.744L131.769 40.2733H131.51L126.615 28.8556Z" fill="#AFAFAF"/>
<path d="M138.672 28.8556H145.221V29.974H139.815V33.555H145.18V34.6708H139.815V39.1601H145.18V40.2785H138.672V28.8556Z" fill="#AFAFAF"/>
<path d="M80.3432 28.8037C79.2016 28.7831 78.0798 29.1025 77.1206 29.7211C76.1614 30.3398 75.4084 31.2298 74.9575 32.2776C74.5066 33.3254 74.3783 34.4836 74.5889 35.6045C74.7995 36.7254 75.3394 37.7583 76.1399 38.5715C76.9405 39.3848 77.9653 39.9415 79.0837 40.1707C80.2022 40.4 81.3637 40.2914 82.4201 39.8587C83.4766 39.4261 84.3801 38.6891 85.0156 37.7416C85.6511 36.794 85.9898 35.679 85.9884 34.5385C86.0002 33.0305 85.4122 31.5796 84.3538 30.5043C83.2953 29.429 81.8529 28.8174 80.3432 28.8037ZM83.245 33.8716L80.1926 39.3936C80.184 39.4085 80.1707 39.4201 80.1549 39.4267C80.139 39.4333 80.1214 39.4344 80.1048 39.43C80.0883 39.4255 80.0736 39.4157 80.0632 39.4021C80.0527 39.3885 80.0471 39.3718 80.0471 39.3547L80.0289 35.5505H77.5064C77.4925 35.5495 77.4791 35.5451 77.4674 35.5377C77.4558 35.5302 77.4461 35.52 77.4394 35.5079C77.4327 35.4957 77.4291 35.4821 77.429 35.4683C77.4289 35.4544 77.4323 35.4408 77.4388 35.4285L80.5563 29.6989C80.5641 29.6822 80.5776 29.6688 80.5944 29.6611C80.6112 29.6534 80.6301 29.6519 80.6479 29.6569C80.6657 29.6619 80.6812 29.673 80.6915 29.6883C80.7018 29.7036 80.7064 29.7221 80.7043 29.7404L80.7251 33.7522H83.1723C83.1855 33.7525 83.1983 33.7559 83.2098 33.7623C83.2213 33.7687 83.2311 33.7777 83.2383 33.7888C83.2455 33.7998 83.2498 33.8124 83.251 33.8254C83.2522 33.8385 83.2501 33.8517 83.245 33.8638V33.8716Z" fill="#AFAFAF"/>
<path d="M0 20.2404V0.495483H4.10982C7.06619 0.495483 9.21203 0.733353 10.5473 1.20909C12.3995 1.82889 13.9853 3.05974 15.0442 4.69928C16.1249 6.35485 16.6644 8.32787 16.6627 10.6183C16.7018 12.4419 16.2592 14.2436 15.3794 15.8419C14.6172 17.2527 13.4586 18.4099 12.0463 19.1712C10.6798 19.884 8.7652 20.2404 6.30242 20.2404H0ZM1.89644 18.3746H4.17996C6.91292 18.3746 8.80849 18.2016 9.86669 17.8556C11.2979 17.4157 12.5354 16.5 13.3738 15.2607C14.2259 14.0047 14.652 12.4685 14.652 10.6521C14.652 8.74911 14.1904 7.12209 13.2673 5.77099C12.3466 4.4227 10.9813 3.44004 9.40947 2.99441C8.17981 2.61901 6.14482 2.43044 3.30448 2.42871H1.90683L1.89644 18.3746Z" fill="#AFAFAF"/>
<path d="M32.4975 15.3984L34.0822 16.2313C33.6332 17.1554 33.0227 17.992 32.2793 18.7017C31.6108 19.3199 30.8305 19.8052 29.9802 20.1315C29.0548 20.4713 28.0746 20.6375 27.0887 20.622C24.7022 20.622 22.836 19.8435 21.4904 18.2865C20.187 16.8247 19.4725 14.9322 19.4848 12.9747C19.4661 11.1765 20.0689 9.42681 21.1916 8.02097C22.636 6.1751 24.5688 5.25303 26.99 5.25476C29.484 5.25476 31.4757 6.19932 32.9651 8.08843C34.025 9.42223 34.5637 11.0865 34.581 13.0811H21.4098C21.4445 14.7782 21.9865 16.1691 23.0361 17.2537C23.5354 17.7824 24.1402 18.2003 24.8115 18.4806C25.4828 18.7609 26.2055 18.8972 26.9329 18.8808C27.6709 18.8823 28.4034 18.754 29.0969 18.5019C29.7536 18.2682 30.362 17.9164 30.892 17.4639C31.5278 16.8597 32.069 16.1634 32.4975 15.3984ZM32.4975 11.4644C32.3068 10.5949 31.9331 9.7758 31.4012 9.06153C30.8878 8.43691 30.2358 7.94028 29.497 7.61097C28.7211 7.24875 27.8751 7.06097 27.0186 7.06084C25.6543 7.03512 24.3314 7.52971 23.3192 8.44394C22.5659 9.11689 21.9961 10.1237 21.6099 11.4644H32.4975Z" fill="#AFAFAF"/>
<path d="M36.6895 5.63879H38.6924L43.5998 16.278L48.45 5.63879H50.4659L43.7738 20.2405H43.4231L36.6895 5.63879Z" fill="#AFAFAF"/>
<path d="M65.6407 15.3984L67.2254 16.2313C66.7764 17.1554 66.1659 17.992 65.4225 18.7017C64.7556 19.3194 63.9771 19.8046 63.1286 20.1315C62.2032 20.4713 61.223 20.6375 60.2372 20.622C57.8506 20.622 55.9844 19.8435 54.6388 18.2865C53.3298 16.827 52.6096 14.9342 52.6176 12.9747C52.5989 11.1765 53.2017 9.42681 54.3244 8.02097C55.7688 6.1751 57.7016 5.25303 60.1228 5.25476C62.6168 5.25476 64.6085 6.19932 66.0979 8.08843C67.1579 9.42223 67.6965 11.0865 67.7138 13.0811H54.5556C54.5885 14.7782 55.1306 16.1691 56.1819 17.2537C56.6812 17.7824 57.286 18.2003 57.9573 18.4806C58.6286 18.7609 59.3513 18.8972 60.0787 18.8808C60.8206 18.881 61.5568 18.7501 62.2531 18.4941C62.9098 18.2604 63.5182 17.9086 64.0482 17.4562C64.6787 16.8533 65.2155 16.1597 65.6407 15.3984ZM65.6407 11.4644C65.45 10.5949 65.0763 9.7758 64.5444 9.06153C64.031 8.43691 63.379 7.94028 62.6402 7.61097C61.8603 7.2469 61.0097 7.05906 60.1488 7.06084C58.7845 7.03512 57.4616 7.52971 56.4495 8.44394C55.6961 9.11689 55.1263 10.1237 54.7401 11.4644H65.6407Z" fill="#AFAFAF"/>
<path d="M70.9355 0H72.819V20.2405H70.9355V0Z" fill="#AFAFAF"/>
<path d="M83.6516 5.26267C84.7072 5.23735 85.7555 5.44304 86.7231 5.86531C87.6907 6.28759 88.554 6.91621 89.2526 7.7071C90.5779 9.13882 91.3007 11.0251 91.2711 12.9748C91.2895 14.9691 90.5225 16.8908 89.1357 18.3256C87.7138 19.8514 85.8849 20.6143 83.649 20.6143C81.4131 20.6143 79.5799 19.8514 78.1493 18.3256C76.7642 16.8899 75.9983 14.9686 76.0165 12.9748C75.9872 11.0267 76.7101 9.14214 78.035 7.71229C78.735 6.9187 79.6007 6.28808 80.5711 5.86484C81.5416 5.44161 82.5931 5.23606 83.6516 5.26267ZM83.6516 7.10248C82.8954 7.0921 82.1454 7.2398 81.4497 7.53609C80.754 7.83237 80.128 8.2707 79.6119 8.82292C79.0648 9.37457 78.6344 10.0306 78.3465 10.752C78.0587 11.4733 77.9191 12.2452 77.9363 13.0215C77.9331 14.0578 78.2018 15.0769 78.7157 15.9772C79.199 16.86 79.9186 17.5914 80.794 18.0894C81.6727 18.5777 82.6616 18.834 83.6672 18.834C84.6728 18.834 85.6617 18.5777 86.5404 18.0894C87.4151 17.5905 88.1345 16.8594 88.6187 15.9772C89.1326 15.0769 89.4013 14.0578 89.3981 13.0215C89.4088 12.2414 89.2612 11.4673 88.9643 10.7457C88.6674 10.0241 88.2273 9.37004 87.6705 8.82292C87.1563 8.27393 86.5336 7.83755 85.8418 7.5414C85.15 7.24525 84.4042 7.09579 83.6516 7.10248Z" fill="#AFAFAF"/>
<path d="M94.7773 5.63879H96.6608V8.32455C97.3302 7.37005 98.2124 6.58389 99.2379 6.02803C100.236 5.50959 101.347 5.24657 102.472 5.26253C103.468 5.24881 104.455 5.44091 105.372 5.82675C106.29 6.21259 107.117 6.78383 107.803 7.50455C108.519 8.20732 109.085 9.04815 109.466 9.97599C109.847 10.9038 110.035 11.8993 110.019 12.902C110.037 13.9152 109.851 14.9217 109.472 15.8615C109.093 16.8013 108.528 17.6552 107.811 18.3721C106.733 19.4863 105.331 20.233 103.805 20.5065C102.278 20.7799 100.704 20.5661 99.3054 19.8954C98.2792 19.3721 97.3774 18.635 96.6608 17.7338V25.5887H94.7773V5.63879ZM102.311 7.07379C101.545 7.0575 100.783 7.20066 100.075 7.49417C99.3674 7.78767 98.7283 8.22511 98.1987 8.77867C97.6498 9.33669 97.2191 9.99958 96.9326 10.7277C96.646 11.4558 96.5094 12.2341 96.5309 13.0162C96.5144 14.0602 96.7705 15.0905 97.2739 16.0056C97.7726 16.8934 98.5118 17.6229 99.4067 18.1101C100.299 18.6204 101.309 18.8887 102.337 18.8885C103.343 18.894 104.331 18.6249 105.195 18.1101C106.087 17.583 106.821 16.8255 107.32 15.9173C107.836 15.0193 108.107 14.0021 108.107 12.9669C108.107 11.9316 107.836 10.9144 107.32 10.0164C106.827 9.11953 106.101 8.37245 105.218 7.85439C104.335 7.33634 103.328 7.06661 102.303 7.07379H102.311Z" fill="#AFAFAF"/>
<path d="M125.838 15.3984L127.425 16.2313C126.975 17.1549 126.365 17.9913 125.622 18.7017C124.953 19.32 124.172 19.8053 123.321 20.1315C122.395 20.4713 121.415 20.6375 120.429 20.622C118.044 20.622 116.179 19.8435 114.833 18.2865C113.525 16.8272 112.805 14.9341 112.815 12.9747C112.796 11.176 113.4 9.42604 114.524 8.02097C115.969 6.1751 117.901 5.25303 120.323 5.25476C122.813 5.25476 124.805 6.19932 126.298 8.08843C127.356 9.42223 127.894 11.0865 127.911 13.0811H114.75C114.787 14.7782 115.33 16.1691 116.379 17.2537C116.878 17.7824 117.483 18.2003 118.155 18.4806C118.826 18.7609 119.549 18.8972 120.276 18.8808C121.017 18.8808 121.752 18.7499 122.448 18.4941C123.105 18.2602 123.714 17.9084 124.245 17.4562C124.876 16.8533 125.413 16.1597 125.838 15.3984ZM125.838 11.4644C125.649 10.5942 125.276 9.77461 124.742 9.06153C124.228 8.43691 123.576 7.94028 122.837 7.61097C122.058 7.24694 121.209 7.0591 120.349 7.06084C118.983 7.03379 117.658 7.52847 116.644 8.44394C115.891 9.11689 115.322 10.1237 114.937 11.4644H125.838Z" fill="#AFAFAF"/>
<path d="M146.014 0V20.2405H144.159V17.7338C143.439 18.6362 142.534 19.3733 141.504 19.8954C140.103 20.5658 138.526 20.7794 136.997 20.506C135.468 20.2327 134.064 19.4862 132.983 18.3721C132.267 17.655 131.703 16.8009 131.325 15.861C130.948 14.921 130.764 13.9146 130.785 12.902C130.77 11.8986 130.96 10.9027 131.343 9.97484C131.726 9.04698 132.293 8.20653 133.011 7.50456C133.698 6.78394 134.527 6.21282 135.445 5.82702C136.363 5.44122 137.351 5.24904 138.347 5.26253C139.48 5.24605 140.599 5.50899 141.605 6.02804C142.628 6.58176 143.505 7.36855 144.166 8.32456V0H146.014ZM138.493 7.0738C137.47 7.06741 136.464 7.33693 135.581 7.85394C134.699 8.37094 133.973 9.11625 133.479 10.0113C132.962 10.909 132.691 11.9263 132.691 12.9617C132.691 13.9971 132.962 15.0144 133.479 15.9121C133.978 16.8214 134.714 17.579 135.609 18.1049C136.473 18.6187 137.461 18.8878 138.467 18.8834C139.494 18.8838 140.503 18.6154 141.395 18.1049C142.286 17.6153 143.023 16.8864 143.522 16.0004C144.026 15.0853 144.282 14.055 144.265 13.011C144.287 12.2287 144.15 11.4501 143.863 10.7219C143.576 9.99377 143.145 9.33103 142.595 8.77348C142.066 8.22255 141.428 7.78709 140.722 7.49455C140.016 7.20202 139.257 7.05876 138.493 7.0738Z" fill="#AFAFAF"/>
<path d="M108.985 40.3097C112.161 40.3097 114.734 37.7386 114.734 34.5671C114.734 31.3955 112.161 28.8245 108.985 28.8245C105.81 28.8245 103.236 31.3955 103.236 34.5671C103.236 37.7386 105.81 40.3097 108.985 40.3097Z" fill="#AFAFAF"/>
</g>
<defs>
<clipPath id="clip0_3056_12587">
<rect width="146" height="41" fill="white"/>
</clipPath>
</defs>
</svg>
